<svg xmlns="http://www.w3.org/2000/svg" width="40" height="40" fill="none"><path fill="#202020" fill-rule="evenodd" d="M35 8.156a1 1 0 0 0-.293-.707l-2.156-2.157A1 1 0 0 0 31.844 5H8.142a1 1 0 0 0-.707.292L5.293 7.434A1 1 0 0 0 5 8.141v24.202a1 1 0 0 0 .293.707l1.656 1.657a1 1 0 0 0 .707.292H32.33a1 1 0 0 0 .707-.293l1.671-1.671a1 1 0 0 0 .293-.707zm-14.545 6.353-.456.795-.456-.795a2.324 2.324 0 0 0-3.187-.86 2.357 2.357 0 0 0-.854 3.208l.456.795H15a2.34 2.34 0 0 0-2.333 2.349A2.34 2.34 0 0 0 15 22.349h.958l-.456.795a2.355 2.355 0 0 0 .854 3.208 2.325 2.325 0 0 0 3.187-.86l.456-.794.456.794a2.33 2.33 0 0 0 3.19.858 2.357 2.357 0 0 0 .853-3.208l-.456-.795h.959A2.34 2.34 0 0 0 27.333 20a2.34 2.34 0 0 0-2.332-2.348h-.959l.456-.796a2.355 2.355 0 0 0-.854-3.207 2.33 2.33 0 0 0-3.189.86m-.828 3.056-.532.97c-.13.242-.331.437-.574.573l-.97.532a.419.419 0 0 0 0 .74l.97.532c.242.13.438.33.574.573l.532.97c.16.295.58.295.739 0l.532-.97c.13-.242.331-.438.573-.573l.97-.533a.419.419 0 0 0 0-.739l-.97-.532a1.45 1.45 0 0 1-.573-.573l-.532-.97a.419.419 0 0 0-.74 0" clip-rule="evenodd"/><path fill="#202020" d="M38.25 19.062a.5.5 0 0 1 .5.5v.875a.5.5 0 0 1-.5.5h-1.5a.5.5 0 0 1-.5-.5v-.875a.5.5 0 0 1 .5-.5zM19.063 1.75a.5.5 0 0 1 .5-.5h.875a.5.5 0 0 1 .5.5v1.5a.5.5 0 0 1-.5.5h-.875a.5.5 0 0 1-.5-.5zM3.25 19.062a.5.5 0 0 1 .5.5v.875a.5.5 0 0 1-.5.5h-1.5a.5.5 0 0 1-.5-.5v-.875a.5.5 0 0 1 .5-.5zM19.063 36.75a.5.5 0 0 1 .5-.5h.875a.5.5 0 0 1 .5.5v1.5a.5.5 0 0 1-.5.5h-.875a.5.5 0 0 1-.5-.5zM38.25 13.75a.5.5 0 0 1 .5.5v.874a.5.5 0 0 1-.5.5h-1.5a.5.5 0 0 1-.5-.5v-.875a.5.5 0 0 1 .5-.5zM13.75 1.75a.5.5 0 0 1 .5-.5h.875a.5.5 0 0 1 .5.5v1.5a.5.5 0 0 1-.5.5h-.875a.5.5 0 0 1-.5-.5zM3.25 13.75a.5.5 0 0 1 .5.5v.874a.5.5 0 0 1-.5.5h-1.5a.5.5 0 0 1-.5-.5v-.875a.5.5 0 0 1 .5-.5zM13.75 36.75a.5.5 0 0 1 .5-.5h.875a.5.5 0 0 1 .5.5v1.5a.5.5 0 0 1-.5.5h-.875a.5.5 0 0 1-.5-.5zM38.25 24.375a.5.5 0 0 1 .5.5v.875a.5.5 0 0 1-.5.5h-1.5a.5.5 0 0 1-.5-.5v-.875a.5.5 0 0 1 .5-.5zM24.375 1.75a.5.5 0 0 1 .5-.5h.875a.5.5 0 0 1 .5.5v1.5a.5.5 0 0 1-.5.5h-.875a.5.5 0 0 1-.5-.5zM3.25 24.375a.5.5 0 0 1 .5.5v.875a.5.5 0 0 1-.5.5h-1.5a.5.5 0 0 1-.5-.5v-.875a.5.5 0 0 1 .5-.5zM24.375 36.75a.5.5 0 0 1 .5-.5h.875a.5.5 0 0 1 .5.5v1.5a.5.5 0 0 1-.5.5h-.875a.5.5 0 0 1-.5-.5z"/></svg>