<svg xmlns="http://www.w3.org/2000/svg" width="49" height="40" fill="none"><g filter="url(#a)"><path fill="url(#b)" fill-rule="evenodd" d="m24.402 12.804.456-.795.002-.002a2.325 2.325 0 0 1 3.187-.859 2.355 2.355 0 0 1 .854 3.208l-.456.795h.959a2.34 2.34 0 0 1 2.332 2.348 2.34 2.34 0 0 1-2.332 2.349h-.959l.456.795a2.356 2.356 0 0 1-.854 3.207 2.33 2.33 0 0 1-3.189-.857l-.456-.795-.456.795a2.325 2.325 0 0 1-3.187.859 2.355 2.355 0 0 1-.854-3.208l.456-.795h-.959a2.34 2.34 0 0 1-2.332-2.348 2.34 2.34 0 0 1 2.332-2.349h.959l-.456-.795a2.357 2.357 0 0 1 .854-3.207 2.324 2.324 0 0 1 3.187.859zm-.373 2.261-.532.97c-.13.242-.33.437-.573.573l-.97.532a.419.419 0 0 0 0 .74l.97.532c.242.13.437.33.573.573l.532.97c.16.296.58.296.74 0l.532-.97c.13-.242.33-.437.573-.573l.97-.532a.419.419 0 0 0 0-.74l-.97-.532a1.45 1.45 0 0 1-.573-.573l-.532-.97a.419.419 0 0 0-.74 0" clip-rule="evenodd"/><path fill="url(#c)" fill-rule="evenodd" d="M25.939 31.383a1.5 1.5 0 0 1-2.901 0h-3.781v7.338h10.292v-7.338z" clip-rule="evenodd"/><path fill="url(#d)" d="M43.75 6.5a.75.75 0 0 0-.75-.75H6a.75.75 0 0 0-.75.75v22c0 .414.336.75.75.75h37a.75.75 0 0 0 .75-.75zm1.5 22A2.25 2.25 0 0 1 43 30.75H6a2.25 2.25 0 0 1-2.25-2.25v-22A2.25 2.25 0 0 1 6 4.25h37a2.25 2.25 0 0 1 2.25 2.25z"/></g><defs><linearGradient id="b" x1="7.219" x2="53.48" y1="-3.77" y2="53.087" gradientUnits="userSpaceOnUse"><stop offset=".152" stop-color="#FC6D2D"/><stop offset=".439" stop-color="#FF02F0"/><stop offset=".649" stop-color="#0091FF"/></linearGradient><linearGradient id="c" x1="7.219" x2="53.48" y1="-3.77" y2="53.087" gradientUnits="userSpaceOnUse"><stop offset=".152" stop-color="#FC6D2D"/><stop offset=".439" stop-color="#FF02F0"/><stop offset=".649" stop-color="#0091FF"/></linearGradient><linearGradient id="d" x1="7.219" x2="53.48" y1="-3.77" y2="53.087" gradientUnits="userSpaceOnUse"><stop offset=".152" stop-color="#FC6D2D"/><stop offset=".439" stop-color="#FF02F0"/><stop offset=".649" stop-color="#0091FF"/></linearGradient><filter id="a" width="49" height="40" x="0" y="0" color-interpolation-filters="sRGB" filterUnits="userSpaceOnUse"><feFlood flood-opacity="0" result="BackgroundImageFix"/><feBlend in="SourceGraphic" in2="BackgroundImageFix" result="shape"/><feColorMatrix in="SourceAlpha" result="hardAlpha" values="0 0 0 0 0 0 0 0 0 0 0 0 0 0 0 0 0 0 127 0"/><feOffset/><feGaussianBlur stdDeviation=".5"/><feComposite in2="hardAlpha" k2="-1" k3="1" operator="arithmetic"/><feColorMatrix values="0 0 0 0 1 0 0 0 0 1 0 0 0 0 1 0 0 0 1 0"/><feBlend in2="shape" result="effect1_innerShadow_3946_6798"/></filter></defs></svg>