<svg width="28" height="28" viewBox="0 0 28 28" fill="none" xmlns="http://www.w3.org/2000/svg">
<path d="M16.0537 0C20.2349 7.51347e-10 22.3257 -0.000133932 23.9229 0.813477C25.3278 1.52933 26.4707 2.6722 27.1865 4.07715C28.0001 5.67426 28 7.76513 28 11.9463V16.0537C28 20.2349 28.0001 22.3257 27.1865 23.9229C26.4707 25.3278 25.3278 26.4707 23.9229 27.1865C22.3257 28.0001 20.2349 28 16.0537 28H11.9463C7.76513 28 5.67426 28.0001 4.07715 27.1865C2.6722 26.4707 1.52933 25.3278 0.813477 23.9229C-0.000133932 22.3257 7.51346e-10 20.2349 0 16.0537V11.9463C7.51347e-10 7.76513 -0.000134289 5.67426 0.813477 4.07715C1.52933 2.6722 2.6722 1.52933 4.07715 0.813477C5.67426 -0.000134289 7.76513 7.51346e-10 11.9463 0H16.0537ZM17.8486 5.96582C17.5326 5.81426 17.1807 6.05479 17.1807 6.40527V7.40918C17.1804 8.23741 16.5089 8.90918 15.6807 8.90918H12.3174C11.4894 8.90885 10.8176 8.23721 10.8174 7.40918V6.40625C10.8174 6.05571 10.4664 5.8151 10.1504 5.9668C8.32375 6.84363 6.84252 8.32372 5.96582 10.1504C5.81422 10.4663 6.05497 10.8181 6.40527 10.8184H7.4082C8.23646 10.8184 8.908 11.4901 8.9082 12.3184V15.6816C8.90802 16.5099 8.23648 17.1816 7.4082 17.1816H6.40527C6.055 17.1819 5.81434 17.5328 5.96582 17.8486C6.84244 19.6757 8.32358 21.1562 10.1504 22.0332C10.4664 22.1849 10.8174 21.9443 10.8174 21.5938V20.5908C10.8176 19.7628 11.4894 19.0911 12.3174 19.0908H15.6807C16.5089 19.0908 17.1804 19.7626 17.1807 20.5908V21.5957C17.1809 21.946 17.5327 22.1867 17.8486 22.0352C19.6766 21.1583 21.1581 19.6765 22.0352 17.8486C22.1868 17.5326 21.9462 17.1816 21.5957 17.1816H20.5898C19.7618 17.1813 19.09 16.5097 19.0898 15.6816V12.3184C19.09 11.4903 19.7619 10.8187 20.5898 10.8184H21.5957C21.9462 10.8184 22.1868 10.4664 22.0352 10.1504C21.1581 8.32309 19.6762 6.8425 17.8486 5.96582Z" fill="#6647F0"/>
</svg>
