<svg width="20" height="20" viewBox="0 0 20 20" fill="none" xmlns="http://www.w3.org/2000/svg">
<path fill-rule="evenodd" clip-rule="evenodd" d="M10 3.33329C6.31811 3.33329 3.33334 6.31806 3.33334 9.99996C3.33334 13.6819 6.31811 16.6666 10 16.6666C13.6819 16.6666 16.6667 13.6819 16.6667 9.99996C16.6667 6.31806 13.6819 3.33329 10 3.33329ZM1.66667 9.99996C1.66667 5.39759 5.39763 1.66663 10 1.66663C14.6024 1.66663 18.3333 5.39759 18.3333 9.99996C18.3333 14.6023 14.6024 18.3333 10 18.3333C5.39763 18.3333 1.66667 14.6023 1.66667 9.99996ZM10 5.92589C10.4602 5.92589 10.8333 6.29898 10.8333 6.75922V9.16663H13.4259C13.8862 9.16663 14.2593 9.53972 14.2593 9.99996C14.2593 10.4602 13.8862 10.8333 13.4259 10.8333H10.8333V13.4259C10.8333 13.8861 10.4602 14.2592 10 14.2592C9.53977 14.2592 9.16667 13.8861 9.16667 13.4259V10.8333H6.75927C6.29903 10.8333 5.92593 10.4602 5.92593 9.99996C5.92593 9.53972 6.29903 9.16663 6.75927 9.16663H9.16667V6.75922C9.16667 6.29898 9.53977 5.92589 10 5.92589Z" fill="#646464"/>
</svg>
