<svg width="20" height="20" viewBox="0 0 20 20" fill="none" xmlns="http://www.w3.org/2000/svg">
<path d="M9.40827 13.2415L17.7416 4.90817C18.0666 4.58317 18.0666 4.05817 17.7333 3.73317C17.6562 3.65591 17.5646 3.59462 17.4638 3.55281C17.363 3.51099 17.2549 3.48946 17.1458 3.48946C17.0366 3.48946 16.9286 3.51099 16.8278 3.55281C16.7269 3.59462 16.6354 3.65591 16.5583 3.73317L8.81661 11.4748L7.04994 9.70817C6.97279 9.63101 6.8812 9.56981 6.78039 9.52806C6.67959 9.48631 6.57155 9.46482 6.46244 9.46482C6.35333 9.46482 6.24529 9.48631 6.14449 9.52806C6.04368 9.56981 5.95209 9.63101 5.87494 9.70817C5.79779 9.78532 5.73659 9.87691 5.69483 9.97771C5.65308 10.0785 5.63159 10.1866 5.63159 10.2957C5.63159 10.4048 5.65308 10.5128 5.69483 10.6136C5.73659 10.7144 5.79779 10.806 5.87494 10.8832L8.23327 13.2415C8.31037 13.3188 8.40194 13.38 8.50275 13.4219C8.60356 13.4637 8.71163 13.4852 8.82077 13.4852C8.92991 13.4852 9.03798 13.4637 9.13879 13.4219C9.2396 13.38 9.33118 13.3188 9.40827 13.2415Z" fill="#5E42DE"/>
<path d="M3.37494 9.24983C2.93327 13.2582 6.07494 16.6665 9.99994 16.6665C10.7916 16.6665 11.5583 16.5248 12.2666 16.2665C12.4142 16.2115 12.5745 16.2003 12.7283 16.2343C12.882 16.2683 13.0227 16.3461 13.1333 16.4582C13.5666 16.8915 13.4083 17.6248 12.8416 17.8332C11.9499 18.1582 10.9999 18.3332 9.99994 18.3332C5.24994 18.3332 1.43327 14.3665 1.67494 9.55817C1.89161 5.28317 5.44994 1.79983 9.73327 1.6665C11.2083 1.62483 12.5916 1.9665 13.8166 2.5915C14.0133 2.69427 14.1611 2.87097 14.2275 3.08273C14.294 3.29449 14.2735 3.52396 14.1708 3.72067C14.068 3.91737 13.8913 4.06519 13.6795 4.13161C13.4678 4.19803 13.2383 4.1776 13.0416 4.07483C11.8249 3.4415 10.3916 3.17483 8.88327 3.42483C5.97494 3.90817 3.69994 6.3165 3.37494 9.24983Z" fill="#5E42DE"/>
<path d="M15.0814 12.5293H13.3625C12.8898 12.5293 12.5031 12.9043 12.5031 13.3626C12.5031 13.8209 12.8898 14.1959 13.3625 14.1959H15.0814V15.8626C15.0814 16.3209 15.4682 16.6959 15.9409 16.6959C16.4136 16.6959 16.8003 16.3209 16.8003 15.8626V14.1959H18.5192C18.9919 14.1959 19.3787 13.8209 19.3787 13.3626C19.3787 12.9043 18.9919 12.5293 18.5192 12.5293H16.8003V10.8626C16.8003 10.4043 16.4136 10.0293 15.9409 10.0293C15.4682 10.0293 15.0814 10.4043 15.0814 10.8626V12.5293Z" fill="#5E42DE"/>
</svg>
