<svg xmlns="http://www.w3.org/2000/svg" width="49" height="40" fill="none"><g filter="url(#a)"><path fill="url(#b)" d="M29.816 14.25q-.331.72-.533 1.5H8.5a.75.75 0 0 0-.75.75v20h32.5v-9.783a9 9 0 0 0 1.5-.532V36.5h3.75V38a1 1 0 0 1-1 1h-4v.25a.5.5 0 0 1-.5.5h-2a.5.5 0 0 1-.5-.5V39h-27v.25a.5.5 0 0 1-.5.5H8a.5.5 0 0 1-.5-.5V39h-4a1 1 0 0 1-1-1v-1.5h3.75v-20a2.25 2.25 0 0 1 2.25-2.25z"/><path fill="url(#c)" d="M45.427 14.993c.378.93.59 1.944.59 3.007 0 4.42-3.597 8.017-8.017 8.017l3.472-6.013-.004-.002c.342-.59.54-1.273.54-2.002 0-1.197-.53-2.271-1.365-3.007z"/><path fill="url(#d)" d="m34.528 20.003.005-.002A4.01 4.01 0 0 0 38 22.008c.448 0 .878-.078 1.28-.214l-2.387 4.136c-3.897-.543-6.91-3.887-6.91-7.931 0-1.457.397-2.82 1.08-3.999z"/><path fill="url(#e)" d="M38 14.993a3.007 3.007 0 1 1 0 6.014 3.007 3.007 0 0 1 0-6.014"/><path fill="url(#f)" d="M38 9.982c2.96 0 5.544 1.616 6.933 4.008H38a4.02 4.02 0 0 0-3.93 3.217l-2.384-4.13A8 8 0 0 1 38 9.981"/></g><defs><linearGradient id="b" x1="6.138" x2="43.872" y1="3.057" y2="59.374" gradientUnits="userSpaceOnUse"><stop offset=".152" stop-color="#FC6D2D"/><stop offset=".439" stop-color="#FF02F0"/><stop offset=".649" stop-color="#0091FF"/></linearGradient><linearGradient id="c" x1="6.138" x2="43.872" y1="3.057" y2="59.374" gradientUnits="userSpaceOnUse"><stop offset=".152" stop-color="#FC6D2D"/><stop offset=".439" stop-color="#FF02F0"/><stop offset=".649" stop-color="#0091FF"/></linearGradient><linearGradient id="d" x1="6.138" x2="43.872" y1="3.057" y2="59.374" gradientUnits="userSpaceOnUse"><stop offset=".152" stop-color="#FC6D2D"/><stop offset=".439" stop-color="#FF02F0"/><stop offset=".649" stop-color="#0091FF"/></linearGradient><linearGradient id="e" x1="6.138" x2="43.872" y1="3.057" y2="59.374" gradientUnits="userSpaceOnUse"><stop offset=".152" stop-color="#FC6D2D"/><stop offset=".439" stop-color="#FF02F0"/><stop offset=".649" stop-color="#0091FF"/></linearGradient><linearGradient id="f" x1="6.138" x2="43.872" y1="3.057" y2="59.374" gradientUnits="userSpaceOnUse"><stop offset=".152" stop-color="#FC6D2D"/><stop offset=".439" stop-color="#FF02F0"/><stop offset=".649" stop-color="#0091FF"/></linearGradient><filter id="a" width="49" height="40" x="0" y="0" color-interpolation-filters="sRGB" filterUnits="userSpaceOnUse"><feFlood flood-opacity="0" result="BackgroundImageFix"/><feBlend in="SourceGraphic" in2="BackgroundImageFix" result="shape"/><feColorMatrix in="SourceAlpha" result="hardAlpha" values="0 0 0 0 0 0 0 0 0 0 0 0 0 0 0 0 0 0 127 0"/><feOffset/><feGaussianBlur stdDeviation=".75"/><feComposite in2="hardAlpha" k2="-1" k3="1" operator="arithmetic"/><feColorMatrix values="0 0 0 0 1 0 0 0 0 1 0 0 0 0 1 0 0 0 1 0"/><feBlend in2="shape" result="effect1_innerShadow_3946_6782"/></filter></defs></svg>