<svg xmlns="http://www.w3.org/2000/svg" width="49" height="40" fill="none"><path fill="#202020" d="M29.816 14.25q-.331.72-.533 1.5H8.5a.75.75 0 0 0-.75.75v20h32.5v-9.783a9 9 0 0 0 1.5-.532V36.5h3.75V38a1 1 0 0 1-1 1h-4v.25a.5.5 0 0 1-.5.5h-2a.5.5 0 0 1-.5-.5V39h-27v.25a.5.5 0 0 1-.5.5H8a.5.5 0 0 1-.5-.5V39h-4a1 1 0 0 1-1-1v-1.5h3.75v-20a2.25 2.25 0 0 1 2.25-2.25z"/><path fill="#202020" d="M45.427 14.993c.378.93.59 1.944.59 3.007 0 4.42-3.597 8.017-8.017 8.017l3.472-6.013-.004-.002c.342-.59.54-1.273.54-2.002 0-1.197-.53-2.271-1.365-3.007z"/><path fill="#202020" d="m34.528 20.003.005-.002A4.01 4.01 0 0 0 38 22.008c.448 0 .878-.078 1.28-.214l-2.387 4.136c-3.897-.543-6.91-3.887-6.91-7.931 0-1.457.397-2.82 1.08-3.999z"/><path fill="#202020" d="M38 14.993a3.007 3.007 0 1 1 0 6.014 3.007 3.007 0 0 1 0-6.014"/><path fill="#202020" d="M38 9.982c2.96 0 5.544 1.616 6.933 4.008H38a4.02 4.02 0 0 0-3.93 3.217l-2.384-4.13A8 8 0 0 1 38 9.981"/></svg>