<svg width="20" height="20" viewBox="0 0 20 20" fill="none" xmlns="http://www.w3.org/2000/svg">
<path d="M13.334 1.6665C14.438 1.6665 15.3387 2.52548 15.41 3.61149C16.8674 3.82603 17.9899 5.02481 18.0907 6.51839C18.2762 9.27338 18.2762 12.393 18.0907 15.1479C17.9839 16.7311 16.7293 17.9832 15.1439 18.0825C12.0224 18.2781 7.97893 18.2781 4.85744 18.0825C3.27205 17.9832 2.01745 16.7311 1.91067 15.1479C1.72509 12.393 1.72509 9.2734 1.91067 6.51839C2.01139 5.02512 3.13352 3.8264 4.59052 3.61149C4.66178 2.52546 5.56328 1.6665 6.66734 1.6665C7.71471 1.6665 8.57915 2.43974 8.72626 3.44629C9.57146 3.43525 10.4291 3.43526 11.2743 3.44629C11.4213 2.43968 12.2866 1.6665 13.334 1.6665ZM11.2556 5.11296C10.4229 5.10206 9.57767 5.10205 8.74498 5.11296C8.68615 6.21088 7.77993 7.08317 6.66734 7.08317C5.62333 7.08317 4.76047 6.31497 4.60923 5.31315C4.0353 5.4918 3.61549 6.00382 3.57326 6.6307C3.39272 9.3111 3.39271 12.3553 3.57326 15.0356C3.62377 15.7855 4.21326 16.3722 4.96161 16.4191C8.01371 16.6103 11.9876 16.6103 15.0397 16.4191C15.7881 16.3722 16.3776 15.7855 16.4281 15.0356C16.6086 12.3553 16.6086 9.31109 16.4281 6.6307C16.3858 6.00351 15.9657 5.49155 15.3913 5.31315C15.24 6.31491 14.378 7.08317 13.334 7.08317C12.2214 7.08317 11.3144 6.2109 11.2556 5.11296ZM6.66734 3.33317C6.43722 3.33317 6.25067 3.51972 6.25067 3.74984V4.99984C6.25067 5.22996 6.43722 5.4165 6.66734 5.4165C6.89746 5.4165 7.08401 5.22996 7.08401 4.99984V3.74984C7.08401 3.51972 6.89746 3.33317 6.66734 3.33317ZM13.334 3.33317C13.1039 3.33317 12.9173 3.51972 12.9173 3.74984V4.99984C12.9173 5.22996 13.1039 5.4165 13.334 5.4165C13.5641 5.4165 13.7507 5.22996 13.7507 4.99984V3.74984C13.7507 3.51972 13.5641 3.33317 13.334 3.33317Z" fill="#5E42DE"/>
</svg>
