<svg width="16" height="16" viewBox="0 0 16 16" fill="none" xmlns="http://www.w3.org/2000/svg">
<path fill-rule="evenodd" clip-rule="evenodd" d="M8 1.33398C4.3181 1.33398 1.33334 4.31875 1.33334 8.00065C1.33334 11.6825 4.3181 14.6673 8 14.6673C11.6819 14.6673 14.6667 11.6825 14.6667 8.00065C14.6667 4.31875 11.6819 1.33398 8 1.33398ZM5.5286 5.52898C5.78895 5.26863 6.21106 5.26863 6.47141 5.52898L8 7.05758L9.5286 5.52898C9.78895 5.26863 10.2111 5.26863 10.4714 5.52898C10.7318 5.78933 10.7318 6.21144 10.4714 6.47179L8.94281 8.00039L10.4714 9.52898C10.7318 9.78933 10.7318 10.2114 10.4714 10.4718C10.2111 10.7321 9.78895 10.7321 9.5286 10.4718L8 8.9432L6.47141 10.4718C6.21106 10.7321 5.78895 10.7321 5.5286 10.4718C5.26825 10.2114 5.26825 9.78933 5.5286 9.52898L7.05719 8.00039L5.5286 6.47179C5.26825 6.21144 5.26825 5.78933 5.5286 5.52898Z" fill="#E5484D"/>
<path d="M8.00033 0.000976562C12.4185 0.00115239 16.0003 3.58281 16.0003 8.00098C16.0002 12.419 12.4183 16.0008 8.00033 16.001C3.58216 16.001 0.000503883 12.4191 0.000328064 8.00098C0.000328064 3.5827 3.58205 0.000976562 8.00033 0.000976562ZM8.00033 1.33398C4.31843 1.33398 1.33334 4.31908 1.33334 8.00098C1.33351 11.6827 4.31854 14.667 8.00033 14.667C11.682 14.6668 14.6662 11.6826 14.6663 8.00098C14.6663 4.31919 11.6821 1.33416 8.00033 1.33398ZM9.52865 5.5293C9.78899 5.26896 10.2107 5.26898 10.471 5.5293C10.7314 5.78965 10.7314 6.21133 10.471 6.47168L8.94271 8L10.471 9.5293C10.7314 9.78965 10.7314 10.2113 10.471 10.4717C10.2107 10.7319 9.78895 10.732 9.52865 10.4717L8.00033 8.94336L6.47103 10.4717C6.21067 10.7319 5.78895 10.732 5.52865 10.4717C5.26837 10.2114 5.26844 9.78965 5.52865 9.5293L7.05697 8L5.52865 6.47168C5.26837 6.21137 5.26844 5.78965 5.52865 5.5293C5.78899 5.26896 6.21068 5.26898 6.47103 5.5293L8.00033 7.05762L9.52865 5.5293Z" fill="black"/>
</svg>
