<svg width="20" height="20" viewBox="0 0 20 20" fill="none" xmlns="http://www.w3.org/2000/svg">
<path d="M13.2999 6.29984C13.6582 6.30817 13.9416 6.53317 13.9499 6.84984V7.34984C13.9332 7.6665 13.6582 7.88317 13.3082 7.8915C12.7666 7.90817 11.7582 7.93317 9.89989 7.93317C8.04155 7.93317 7.03322 7.9165 6.49155 7.8915C6.13322 7.88317 5.84989 7.65817 5.84155 7.3415V6.8415C5.85822 6.52484 6.13322 6.30817 6.49155 6.2915C7.03322 6.27484 8.04155 6.24984 9.89989 6.24984C11.7582 6.24984 12.7666 6.2665 13.3082 6.2915L13.2999 6.29984Z" fill="#5E42DE"/>
<path d="M10.8332 10.1832C10.8249 9.85816 10.5582 9.62483 10.1915 9.60816V9.59983C10.1491 9.59886 10.1038 9.59779 10.0554 9.59664C9.6855 9.58786 9.13642 9.57483 8.33321 9.57483C7.42488 9.57483 6.84154 9.58316 6.47488 9.59983C6.10821 9.6165 5.84154 9.84983 5.83321 10.1748V10.6415C5.84154 10.9665 6.10821 11.1998 6.47488 11.2165C6.51872 11.2175 6.56554 11.2186 6.61556 11.2198C6.98393 11.2286 7.52615 11.2415 8.33321 11.2415C9.24988 11.2415 9.83321 11.2332 10.1999 11.2165C10.5665 11.1998 10.8249 10.9748 10.8332 10.6498V10.1832Z" fill="#5E42DE"/>
<path fill-rule="evenodd" clip-rule="evenodd" d="M7.5582 19.1915C7.29154 19.1915 7.02487 19.1332 6.76654 19.0165C6.19987 18.7582 5.84154 18.2415 5.84154 17.6748V15.8748C5.43456 15.8574 5.1006 15.8359 4.79154 15.816C4.65774 15.8074 4.52825 15.7991 4.39987 15.7915H4.24154V15.7832C2.96654 15.6915 1.9582 14.7165 1.84154 13.4498C1.7582 12.5415 1.6582 11.0082 1.6582 8.80817C1.6582 7.04984 1.71654 5.48317 1.84154 4.1665C1.9582 2.90817 2.96654 1.92484 4.24154 1.83317C5.34154 1.75817 7.2332 1.6665 9.99987 1.6665C12.7665 1.6665 14.6582 1.75817 15.7582 1.83317C17.0332 1.92484 18.0415 2.89984 18.1582 4.1665C18.2749 5.48317 18.3415 7.04984 18.3415 8.80817C18.3415 10.5665 18.2832 12.1248 18.1582 13.4498C18.0415 14.7082 17.0332 15.6915 15.7582 15.7832C14.6499 15.8582 13.3332 15.9332 11.1999 15.9498L8.6832 18.7498L8.6082 18.8248C8.32487 19.0665 7.9582 19.1915 7.56654 19.1915H7.5582ZM7.51654 17.5165H7.54154L10.1999 14.5498C10.3582 14.3748 10.5832 14.2748 10.8165 14.2748C13.1249 14.2665 14.4999 14.1915 15.6415 14.1082C16.1082 14.0748 16.4499 13.7498 16.4915 13.2915C16.5749 12.4165 16.6665 10.9332 16.6665 8.79984C16.6665 6.6665 16.5749 5.18317 16.4915 4.30817C16.4499 3.84984 16.1082 3.52484 15.6415 3.4915C14.5665 3.4165 12.7165 3.32484 9.99987 3.32484C7.2832 3.32484 5.4332 3.4165 4.3582 3.4915C3.89154 3.52484 3.54154 3.84984 3.49987 4.30817C3.41654 5.18317 3.32487 6.6665 3.32487 8.79984C3.32487 10.9332 3.41654 12.4165 3.49987 13.2915C3.54154 13.7498 3.8832 14.0748 4.3582 14.1082H4.51654C5.09987 14.1582 5.69154 14.1998 6.69987 14.2332C7.14987 14.2498 7.5082 14.6165 7.5082 15.0665V17.5082L7.51654 17.5165Z" fill="#5E42DE"/>
</svg>
