<svg width="18" height="22" viewBox="0 0 18 22" fill="none" xmlns="http://www.w3.org/2000/svg">
<path fill-rule="evenodd" clip-rule="evenodd" d="M0.140778 17.2465C-0.0744267 16.9842 -0.0273493 16.5979 0.237268 16.3855L2.74399 14.3728C2.96265 14.1973 3.28233 14.2369 3.46061 14.4533C5.16327 16.5205 6.97003 17.4774 8.96987 17.4774C10.9559 17.4774 12.7134 16.534 14.3415 14.4898C14.5162 14.2704 14.8351 14.2251 15.0569 14.3967L17.5979 16.3632C17.8662 16.5708 17.9203 16.956 17.7096 17.222C15.3023 20.2605 12.355 21.8614 8.96987 21.8614C5.59456 21.8614 2.62093 20.2705 0.140778 17.2465Z" fill="url(#paint0_linear_2766_2939)"/>
<path fill-rule="evenodd" clip-rule="evenodd" d="M9.09122 5.90126C8.99673 5.81759 8.85467 5.81754 8.76012 5.90115L3.30942 10.7209C3.10105 10.9051 2.78233 10.8837 2.60045 10.6733L0.474511 8.2136C0.295164 8.0061 0.316618 7.69282 0.522576 7.5117L8.5957 0.412292C8.78441 0.246343 9.06701 0.24638 9.25567 0.412379L17.3306 7.51714C17.5367 7.69847 17.5579 8.01209 17.3781 8.21951L15.247 10.678C15.0649 10.888 14.7464 10.9091 14.5382 10.7248L9.09122 5.90126Z" fill="url(#paint1_linear_2766_2939)"/>
<defs>
<linearGradient id="paint0_linear_2766_2939" x1="-0.238708" y1="11.0475" x2="18.0805" y2="11.0475" gradientUnits="userSpaceOnUse">
<stop offset="0.225962" stop-color="#6647F0"/>
<stop offset="0.793269" stop-color="#0091FF"/>
</linearGradient>
<linearGradient id="paint1_linear_2766_2939" x1="-0.238709" y1="10.8696" x2="18.0805" y2="10.8696" gradientUnits="userSpaceOnUse">
<stop stop-color="#FF02F0"/>
<stop offset="0.778846" stop-color="#F76808"/>
<stop offset="1" stop-color="#F76808"/>
</linearGradient>
</defs>
</svg>
