<svg width="18" height="18" viewBox="0 0 18 18" fill="none" xmlns="http://www.w3.org/2000/svg">
<path fill-rule="evenodd" clip-rule="evenodd" d="M8.66667 15.3333C12.3486 15.3333 15.3333 12.3486 15.3333 8.66667C15.3333 4.98477 12.3486 2 8.66667 2C4.98477 2 2 4.98477 2 8.66667C2 12.3486 4.98477 15.3333 8.66667 15.3333ZM12.1381 7.47134C12.3985 7.21099 12.3985 6.78888 12.1381 6.52853C11.8778 6.26818 11.4556 6.26818 11.1953 6.52853L7.6667 10.0571L6.1381 8.52853C5.87775 8.26818 5.45564 8.26818 5.1953 8.52853C4.93495 8.78888 4.93495 9.21099 5.1953 9.47134L7.19529 11.4713C7.45564 11.7317 7.87776 11.7317 8.1381 11.4713L12.1381 7.47134Z" fill="#30A46C"/>
<path d="M8.66699 1C12.901 1.00018 16.333 4.43292 16.333 8.66699C16.3328 12.9009 12.9009 16.3328 8.66699 16.333C4.43292 16.333 1.00018 12.901 1 8.66699C1 4.43281 4.43281 1 8.66699 1Z" stroke="black" stroke-width="2"/>
</svg>
