<svg width="16" height="16" viewBox="0 0 16 16" fill="none" xmlns="http://www.w3.org/2000/svg">
<path fill-rule="evenodd" clip-rule="evenodd" d="M2.43516 11.1611C2.31105 11.3718 2.17166 11.6162 2.05328 11.8109C1.94732 11.9972 2.00421 12.2376 2.18121 12.3514L4.66339 13.9411C4.75052 13.9971 4.8556 14.0143 4.95504 13.9889C5.05449 13.9635 5.13997 13.8976 5.19228 13.806C5.29157 13.6331 5.41949 13.4085 5.55888 13.1681C6.5422 11.4791 7.53125 11.6857 9.3146 12.572L11.7758 13.7901C11.869 13.8362 11.9762 13.8412 12.073 13.8037C12.1697 13.7663 12.2478 13.6897 12.2894 13.5913L13.4713 10.8094C13.5548 10.6107 13.4698 10.379 13.2803 10.2888C12.761 10.0344 11.728 9.52772 10.7982 9.06075C7.45297 7.36973 4.60992 7.47902 2.43516 11.1611Z" fill="url(#paint0_linear_2880_2499)"/>
<path fill-rule="evenodd" clip-rule="evenodd" d="M13.5649 4.84775C13.689 4.63712 13.8284 4.39271 13.9467 4.19797C14.0527 4.01162 13.9958 3.77129 13.8188 3.65748L11.3366 2.0678C11.2488 2.00622 11.1403 1.98538 11.0372 2.01025C10.934 2.03511 10.8454 2.10346 10.7925 2.19895C10.6932 2.37182 10.5653 2.59637 10.4259 2.83681C9.44255 4.52584 8.4535 4.31918 6.67015 3.43294L4.21662 2.2208C4.12341 2.17463 4.0162 2.1697 3.91944 2.20714C3.82268 2.24457 3.7446 2.32119 3.703 2.41951L2.5211 5.20146C2.4376 5.40015 2.52257 5.63182 2.71204 5.72208C3.23139 5.97643 4.26435 6.48314 5.19422 6.95011C8.54706 8.63915 11.3901 8.52588 13.5649 4.84775Z" fill="url(#paint1_linear_2880_2499)"/>
<defs>
<linearGradient id="paint0_linear_2880_2499" x1="13.4045" y1="14.7617" x2="10.4333" y2="8.21212" gradientUnits="userSpaceOnUse">
<stop offset="0.18" stop-color="#0052CC"/>
<stop offset="1" stop-color="#2684FF"/>
</linearGradient>
<linearGradient id="paint1_linear_2880_2499" x1="2.59557" y1="1.24514" x2="5.5714" y2="7.79779" gradientUnits="userSpaceOnUse">
<stop offset="0.18" stop-color="#0052CC"/>
<stop offset="1" stop-color="#2684FF"/>
</linearGradient>
</defs>
</svg>
