<svg width="19" height="18" viewBox="0 0 19 18" fill="none" xmlns="http://www.w3.org/2000/svg">
<g filter="url(#filter0_d_2880_2501)">
<path d="M9.41792 5.74108L7.21553 1.85435C7.28866 1.7799 7.37279 1.73107 7.45692 1.69824C6.80745 1.91199 6.50945 2.6413 6.50945 2.6413L2.48604 9.73989C2.42942 9.96245 2.4137 10.1634 2.42077 10.3403H6.81217L9.41792 5.74108Z" fill="#34A853"/>
<path d="M9.41772 5.74108L12.0235 10.3403H16.4149C16.4219 10.1634 16.4062 9.96245 16.3496 9.73989L12.3262 2.6413C12.3262 2.6413 12.0274 1.91199 11.3787 1.69824C11.4621 1.73107 11.547 1.7799 11.6201 1.85435L9.41772 5.74108Z" fill="#FBBC05"/>
<path d="M9.41771 5.7411L11.6201 1.85438C11.547 1.77992 11.4621 1.73109 11.3787 1.69827C11.2828 1.66704 11.1798 1.64623 11.0681 1.64062H10.9518H7.88367H7.7673C7.65644 1.64543 7.55265 1.66624 7.45672 1.69827C7.37338 1.73109 7.28846 1.77992 7.21533 1.85438L9.41771 5.7411Z" fill="#188038"/>
<path d="M6.81293 10.3408L4.63571 14.1835C4.63571 14.1835 4.56337 14.1483 4.46509 14.0754C4.7741 14.3132 5.07446 14.3636 5.07446 14.3636H13.6253C14.0971 14.3636 14.1954 14.1835 14.1954 14.1835C14.1969 14.1827 14.1977 14.1819 14.1993 14.1811L12.0236 10.3408H6.81293Z" fill="#4285F4"/>
<path d="M6.81303 10.3408H2.42163C2.44365 10.8628 2.6701 11.1678 2.6701 11.1678L2.83522 11.4544C2.84701 11.4712 2.85409 11.4808 2.85409 11.4808L3.21342 12.1117L4.02014 13.5159C4.04373 13.5727 4.07125 13.6247 4.10035 13.6744C4.11136 13.6912 4.12158 13.7096 4.13337 13.7256C4.13652 13.7304 4.13966 13.7352 4.14281 13.74C4.24266 13.8809 4.35432 13.9898 4.46597 14.0754C4.56425 14.1491 4.63659 14.1835 4.63659 14.1835L6.81303 10.3408Z" fill="#1967D2"/>
<path d="M12.0234 10.3408H16.4148C16.3928 10.8628 16.1664 11.1678 16.1664 11.1678L16.0012 11.4544C15.9895 11.4712 15.9824 11.4808 15.9824 11.4808L15.623 12.1117L14.8163 13.5159C14.7927 13.5727 14.7652 13.6247 14.7361 13.6744C14.7251 13.6912 14.7149 13.7096 14.7031 13.7256C14.6999 13.7304 14.6968 13.7352 14.6937 13.74C14.5938 13.8809 14.4821 13.9898 14.3705 14.0754C14.2722 14.1491 14.1999 14.1835 14.1999 14.1835L12.0234 10.3408Z" fill="#EA4335"/>
</g>
<defs>
<filter id="filter0_d_2880_2501" x="-1.00273" y="-1.20962" width="20.8385" height="20.8385" filterUnits="userSpaceOnUse" color-interpolation-filters="sRGB">
<feFlood flood-opacity="0" result="BackgroundImageFix"/>
<feColorMatrix in="SourceAlpha" type="matrix" values="0 0 0 0 0 0 0 0 0 0 0 0 0 0 0 0 0 0 127 0" result="hardAlpha"/>
<feOffset dy="1.20962"/>
<feGaussianBlur stdDeviation="1.20962"/>
<feComposite in2="hardAlpha" operator="out"/>
<feColorMatrix type="matrix" values="0 0 0 0 0.0627451 0 0 0 0 0.0941176 0 0 0 0 0.156863 0 0 0 0.05 0"/>
<feBlend mode="normal" in2="BackgroundImageFix" result="effect1_dropShadow_2880_2501"/>
<feBlend mode="normal" in="SourceGraphic" in2="effect1_dropShadow_2880_2501" result="shape"/>
</filter>
</defs>
</svg>
