<svg width="16" height="16" viewBox="0 0 16 16" fill="none" xmlns="http://www.w3.org/2000/svg">
<g clip-path="url(#clip0_2880_2511)">
<path d="M1.95455 13.2496H4.18182V7.84046L1 5.4541V12.295C1 12.8232 1.42795 13.2496 1.95455 13.2496Z" fill="#4285F4"/>
<path d="M11.8181 13.2496H14.0454C14.5736 13.2496 14.9999 12.8216 14.9999 12.295V5.4541L11.8181 7.84046" fill="#34A853"/>
<path d="M11.8181 3.70432V7.84069L14.9999 5.45432V4.1816C14.9999 3.00114 13.6524 2.32819 12.709 3.03614" fill="#FBBC04"/>
<path d="M4.18188 7.84046V3.7041L8.00007 6.56774L11.8182 3.7041V7.84046L8.00007 10.7041" fill="#EA4335"/>
<path d="M1 4.1816V5.45432L4.18182 7.84069V3.70432L3.29091 3.03614C2.34591 2.32819 1 3.00114 1 4.1816Z" fill="#C5221F"/>
</g>
<defs>
<clipPath id="clip0_2880_2511">
<rect width="14" height="10.5" fill="white" transform="translate(1 2.75)"/>
</clipPath>
</defs>
</svg>
