<svg width="14" height="14" viewBox="0 0 14 14" fill="none" xmlns="http://www.w3.org/2000/svg">
<path fill-rule="evenodd" clip-rule="evenodd" d="M6.23893 1.21627C6.48831 1.18374 6.74238 1.16699 7.00008 1.16699C7.25778 1.16699 7.51186 1.18374 7.76123 1.21627C8.08069 1.25794 8.30588 1.55069 8.26421 1.87015C8.22254 2.18961 7.92979 2.4148 7.61033 2.37313C7.41086 2.34711 7.20719 2.33366 7.00008 2.33366C6.79298 2.33366 6.5893 2.34711 6.38983 2.37313C6.07037 2.4148 5.77762 2.18961 5.73595 1.87015C5.69428 1.55069 5.91947 1.25794 6.23893 1.21627ZM4.2665 2.47954C4.46281 2.73499 4.41486 3.10121 4.15941 3.29751C3.83591 3.54611 3.54586 3.83615 3.29727 4.15965C3.10097 4.4151 2.73475 4.46305 2.47929 4.26675C2.22384 4.07044 2.17589 3.70422 2.3722 3.44877C2.68258 3.04487 3.04463 2.68282 3.44852 2.37244C3.70398 2.17614 4.0702 2.22409 4.2665 2.47954ZM9.73366 2.47954C9.92997 2.22409 10.2962 2.17614 10.5516 2.37244C10.9555 2.68282 11.3176 3.04487 11.628 3.44877C11.8243 3.70422 11.7763 4.07044 11.5209 4.26675C11.2654 4.46305 10.8992 4.4151 10.7029 4.15965C10.4543 3.83615 10.1643 3.54611 9.84076 3.29751C9.58531 3.10121 9.53736 2.73499 9.73366 2.47954ZM1.86991 5.73619C2.18937 5.77786 2.41456 6.07062 2.37289 6.39008C2.34687 6.58955 2.33341 6.79322 2.33341 7.00033C2.33341 7.20743 2.34687 7.4111 2.37289 7.61057C2.41456 7.93003 2.18937 8.22279 1.86991 8.26446C1.55045 8.30613 1.25769 8.08094 1.21602 7.76148C1.18349 7.5121 1.16675 7.25802 1.16675 7.00033C1.16675 6.74263 1.18349 6.48855 1.21602 6.23918C1.25769 5.91972 1.55045 5.69452 1.86991 5.73619ZM12.1303 5.73619C12.4497 5.69452 12.7425 5.91972 12.7841 6.23918C12.8167 6.48855 12.8334 6.74263 12.8334 7.00033C12.8334 7.25802 12.8167 7.5121 12.7841 7.76148C12.7425 8.08094 12.4497 8.30613 12.1303 8.26446C11.8108 8.22279 11.5856 7.93003 11.6273 7.61057C11.6533 7.41111 11.6667 7.20743 11.6667 7.00033C11.6667 6.79322 11.6533 6.58955 11.6273 6.39008C11.5856 6.07062 11.8108 5.77786 12.1303 5.73619ZM2.47929 9.73391C2.73475 9.5376 3.10097 9.58555 3.29727 9.841C3.54586 10.1645 3.83591 10.4545 4.15941 10.7031C4.41486 10.8994 4.46281 11.2657 4.2665 11.5211C4.0702 11.7766 3.70398 11.8245 3.44852 11.6282C3.04463 11.3178 2.68258 10.9558 2.3722 10.5519C2.17589 10.2964 2.22384 9.93021 2.47929 9.73391ZM11.5209 9.73391C11.7763 9.93021 11.8243 10.2964 11.628 10.5519C11.3176 10.9558 10.9555 11.3178 10.5516 11.6282C10.2962 11.8245 9.92997 11.7766 9.73366 11.5211C9.53736 11.2657 9.58531 10.8994 9.84076 10.7031C10.1643 10.4545 10.4543 10.1645 10.7029 9.841C10.8992 9.58555 11.2654 9.5376 11.5209 9.73391ZM5.73595 12.1305C5.77762 11.811 6.07037 11.5858 6.38983 11.6275C6.5893 11.6535 6.79298 11.667 7.00008 11.667C7.20719 11.667 7.41086 11.6535 7.61033 11.6275C7.92979 11.5858 8.22254 11.811 8.26421 12.1305C8.30588 12.45 8.08069 12.7427 7.76123 12.7844C7.51186 12.8169 7.25778 12.8337 7.00008 12.8337C6.74238 12.8337 6.48831 12.8169 6.23893 12.7844C5.91947 12.7427 5.69428 12.45 5.73595 12.1305Z" fill="#6E6E6E"/>
</svg>
