<svg xmlns="http://www.w3.org/2000/svg" width="52" height="40" fill="none"><path fill="#202020" d="M18.189 21.356c-.742-3.853 2.093-7.501 5.945-7.501s6.687 3.648 5.945 7.501l-.564 2.93c-.508 2.64-2.748 4.569-5.38 4.569-2.634 0-4.874-1.929-5.382-4.569z"/><path fill="#202020" fill-rule="evenodd" d="M20.869 29.852v-.436c.972.54 2.084.845 3.265.845 1.18 0 2.293-.306 3.265-.845v.429c0 .792.496 1.498 1.238 1.765l4.794 1.724H14.84l4.789-1.716a1.875 1.875 0 0 0 1.239-1.766" clip-rule="evenodd"/><path fill="#202020" fill-rule="evenodd" d="M45.28 10c.916 0 1.659.746 1.659 1.667v1.666h-1.244v-1.25a.83.83 0 0 0-.83-.833H2.574a.83.83 0 0 0-.83.833v20.834c0 .46.372.833.83.833h42.293c.458 0 .83-.373.83-.833V30h1.243v8.333c0 .92-.742 1.667-1.658 1.667H2.159A1.663 1.663 0 0 1 .5 38.333V11.667c0-.92.743-1.667 1.659-1.667zM14.599 35.208a.416.416 0 0 0-.415.417v2.5c0 .23.186.417.415.417h3.317a.416.416 0 0 0 .414-.417v-2.5a.416.416 0 0 0-.414-.417zm4.975 0a.416.416 0 0 0-.415.417v2.5c0 .23.186.417.415.417h3.317a.416.416 0 0 0 .415-.417v-2.5a.416.416 0 0 0-.415-.417zm4.976 0a.416.416 0 0 0-.415.417v2.5c0 .23.186.417.415.417h3.317a.416.416 0 0 0 .415-.417v-2.5a.416.416 0 0 0-.415-.417zm4.975 0a.416.416 0 0 0-.414.417v2.5c0 .23.185.417.414.417h3.318a.416.416 0 0 0 .414-.417v-2.5a.416.416 0 0 0-.414-.417z" clip-rule="evenodd"/><path fill="#202020" fill-rule="evenodd" d="M50.67 14.583c.459 0 .83.373.83.834v12.5c0 .46-.371.833-.83.833H39.062a.83.83 0 0 1-.83-.833v-12.5c0-.46.372-.834.83-.834zm-9.536 10.834a.416.416 0 0 0-.415.416c0 .23.186.417.415.417h6.634a.416.416 0 0 0 .415-.417.416.416 0 0 0-.415-.416zm0-1.667a.416.416 0 0 0-.415.417c0 .23.186.416.415.416h4.976a.416.416 0 0 0 .414-.416.416.416 0 0 0-.414-.417zm0-1.667a.416.416 0 0 0-.415.417c0 .23.186.417.415.417h6.634a.416.416 0 0 0 .415-.417.416.416 0 0 0-.415-.417zm0-1.666a.416.416 0 0 0-.415.416c0 .23.186.417.415.417h2.488a.416.416 0 0 0 .415-.417.416.416 0 0 0-.415-.416zm0-3.334a.416.416 0 0 0-.415.417v.833c0 .23.186.417.415.417h7.464a.416.416 0 0 0 .414-.417V17.5a.416.416 0 0 0-.414-.417z" clip-rule="evenodd"/></svg>