<svg width="28" height="28" viewBox="0 0 28 28" fill="none" xmlns="http://www.w3.org/2000/svg">
<path fill-rule="evenodd" clip-rule="evenodd" d="M0.81382 4.07687C0 5.67408 0 7.76494 0 11.9467V16.0533C0 20.2351 0 22.3259 0.81382 23.9231C1.52967 25.3281 2.67193 26.4703 4.07687 27.1862C5.67408 28 7.76494 28 11.9467 28H16.0533C20.2351 28 22.3259 28 23.9231 27.1862C25.3281 26.4703 26.4703 25.3281 27.1862 23.9231C28 22.3259 28 20.2351 28 16.0533V11.9467C28 7.76494 28 5.67408 27.1862 4.07687C26.4703 2.67193 25.3281 1.52967 23.9231 0.813818C22.3259 0 20.2351 0 16.0533 0H11.9467C7.76494 0 5.67408 0 4.07687 0.813818C2.67193 1.52967 1.52967 2.67193 0.81382 4.07687ZM14 23C18.9706 23 23 18.9706 23 14C23 9.02944 18.9706 5 14 5C9.02943 5 5 9.02944 5 14C5 18.9706 9.02943 23 14 23Z" fill="#FC6D2D"/>
<path d="M20 14C20 15.1867 19.6481 16.3467 18.9888 17.3334C18.3295 18.3201 17.3925 19.0892 16.2961 19.5433C15.1997 19.9974 13.9933 20.1162 12.8295 19.8847C11.6656 19.6532 10.5965 19.0818 9.75736 18.2426C8.91824 17.4035 8.3468 16.3344 8.11529 15.1705C7.88378 14.0067 8.0026 12.8003 8.45672 11.7039C8.91085 10.6075 9.67988 9.67047 10.6666 9.01118C11.6533 8.35189 12.8133 8 14 8V14H20Z" fill="#FC6D2D"/>
</svg>
