<svg xmlns="http://www.w3.org/2000/svg" width="48" height="40" fill="none"><path fill="#202020" fill-rule="evenodd" d="M25.56 38.052A16 16 0 0 0 31 39c8.837 0 16-7.163 16-16S39.837 7 31 7c-1.91 0-3.741.335-5.44.948q.848.484 1.634 1.057C28.407 8.675 29.683 8.5 31 8.5c8.008 0 14.5 6.492 14.5 14.5S39.008 37.5 31 37.5c-1.317 0-2.593-.176-3.806-.505q-.786.573-1.633 1.057" clip-rule="evenodd"/><path fill="#202020" d="M31.5 23c0-8.008-6.492-14.5-14.5-14.5S2.5 14.992 2.5 23 8.992 37.5 17 37.5 31.5 31.008 31.5 23m1.5 0c0 8.837-7.163 16-16 16S1 31.837 1 23 8.163 7 17 7s16 7.163 16 16"/><path fill="#202020" fill-rule="evenodd" d="M17.697 18.413a.794.794 0 0 0-1.393 0l-.996 1.82a2.7 2.7 0 0 1-1.075 1.075l-1.82.995a.794.794 0 0 0 0 1.394l1.82.995c.454.248.827.621 1.075 1.075l.995 1.82a.794.794 0 0 0 1.393 0l.996-1.82a2.7 2.7 0 0 1 1.075-1.075l1.82-.995a.794.794 0 0 0 0-1.393l-1.82-.996a2.7 2.7 0 0 1-1.075-1.075z" clip-rule="evenodd"/><path fill="#202020" d="m17.942 34.964.04.498.038.499a13 13 0 0 1-2.04 0l.039-.5.039-.497a12 12 0 0 0 1.883-.001zm-5.535-.877a12 12 0 0 0 1.79.58v.004l-.232.973a13 13 0 0 1-1.942-.631l.383-.923zm9.187.003.383.923q-.938.39-1.942.63l-.232-.972-.001-.004a12 12 0 0 0 1.79-.58zM9.208 32.122q.716.614 1.521 1.11v.001l-.523.852a13 13 0 0 1-1.65-1.2l.65-.76zm15.586.003.65.76a13 13 0 0 1-1.65 1.2l-.524-.852v-.002q.805-.496 1.521-1.109zM6.768 29.27q.496.805 1.109 1.521l-.002.003-.76.65a13 13 0 0 1-1.2-1.65l.852-.524m20.465 0 .852.524a13 13 0 0 1-1.2 1.65l-.76-.65-.003-.003q.613-.715 1.11-1.521zM5.332 25.803q.223.925.58 1.79l-.002.002-.923.383a13 13 0 0 1-.63-1.942l.972-.232zm23.339 0 .973.233q-.241 1.004-.631 1.942l-.923-.383-.003-.002a12 12 0 0 0 .58-1.79zM5 23q0 .475.036.941l-.498.04-.499.038a13 13 0 0 1 0-2.038l.5.038.497.039Q5 22.524 5 23m24 0q0-.475-.037-.942l.998-.078a13 13 0 0 1 0 2.04l-.5-.04-.497-.038h-.001Q29 23.474 29 23M5.91 18.406l.002.001a12 12 0 0 0-.58 1.79h-.003l-.973-.232q.242-1.004.631-1.942zm23.103-.383q.388.938.63 1.942l-.972.232h-.004a12 12 0 0 0-.58-1.79h.003zM7.875 15.206l.002.002q-.614.715-1.11 1.522l-.852-.524q.537-.874 1.2-1.65zm19.01-.65a13 13 0 0 1 1.2 1.65l-.852.524h-.002a12 12 0 0 0-1.109-1.522l.003-.002zm-16.155-1.79q-.806.497-1.522 1.111l-.002-.002-.65-.76a13 13 0 0 1 1.65-1.2zm13.064-.851a13 13 0 0 1 1.65 1.2l-.65.76-.003.002q-.716-.614-1.521-1.11zm-9.597-.586v.003q-.925.222-1.79.58v-.002l-.384-.923q.938-.388 1.942-.63zm5.838-.973q1.004.242 1.942.631l-.383.923-.002.002a12 12 0 0 0-1.79-.58v-.003zM17 10q.514 0 1.02.04l-.04.498-.038.498a12 12 0 0 0-1.884 0l-.005-.068-.073-.929Q16.486 10 17 10"/></svg>