<svg width="28" height="28" viewBox="0 0 28 28" fill="none" xmlns="http://www.w3.org/2000/svg">
<path fill-rule="evenodd" clip-rule="evenodd" d="M0.813818 4.07687C0 5.67408 0 7.76494 0 11.9467V16.0533C0 20.2351 0 22.3259 0.813818 23.9231C1.52967 25.3281 2.67193 26.4703 4.07687 27.1862C5.67408 28 7.76494 28 11.9467 28H16.0533C20.2351 28 22.3259 28 23.9231 27.1862C25.3281 26.4703 26.4703 25.3281 27.1862 23.9231C28 22.3259 28 20.2351 28 16.0533V11.9467C28 7.76494 28 5.67408 27.1862 4.07687C26.4703 2.67193 25.3281 1.52967 23.9231 0.813818C22.3259 0 20.2351 0 16.0533 0H11.9467C7.76494 0 5.67408 0 4.07687 0.813818C2.67193 1.52967 1.52967 2.67193 0.813818 4.07687ZM17.6472 17.5947L16.4858 16.9242C14.9584 16.0424 13.0766 16.0424 11.5492 16.9242L10.1668 17.7224C7.37944 19.3317 3.89521 17.3201 3.89521 14.1015C3.89521 10.8829 7.37949 8.87134 10.1668 10.4807L11.3423 11.1594C12.8784 12.0463 14.7709 12.0463 16.307 11.1595L17.6472 10.3857C20.422 8.7837 23.8904 10.7862 23.8904 13.9902C23.8904 17.1943 20.4219 19.1968 17.6472 17.5947Z" fill="#0091FF"/>
</svg>
