<svg width="16" height="16" viewBox="0 0 16 16" fill="none" xmlns="http://www.w3.org/2000/svg">
<path d="M6.68615 4.42366C7.15917 3.94357 7.8177 3.6458 8.54601 3.6458C9.51419 3.6458 10.3589 4.17169 10.8087 4.95238C11.1996 4.78225 11.6323 4.6876 12.0875 4.6876C13.8337 4.6876 15.2494 6.07866 15.2494 7.7945C15.2494 9.51055 13.8337 10.9016 12.0875 10.9016C11.8784 10.9017 11.6697 10.8815 11.4647 10.8411C11.0686 11.5294 10.3138 11.9945 9.44733 11.9945C9.08463 11.9945 8.74157 11.9129 8.43612 11.7678C8.03456 12.6879 7.09899 13.333 6.00859 13.333C4.87308 13.333 3.90533 12.6331 3.53386 11.6516C3.37153 11.6851 3.20334 11.7026 3.03076 11.7026C1.6788 11.7027 0.582764 10.624 0.582764 9.29321C0.582764 8.4014 1.07521 7.62273 1.80686 7.20614C1.65623 6.86851 1.57245 6.49587 1.57245 6.10408C1.57245 4.57364 2.84795 3.33301 4.42117 3.33301C5.34483 3.33301 6.16571 3.7608 6.68615 4.42366Z" fill="#00A1E0"/>
<path d="M2.7071 8.51877C2.69791 8.54218 2.71044 8.54707 2.71336 8.55114C2.74094 8.57067 2.76895 8.58473 2.79715 8.60039C2.94674 8.67772 3.08799 8.7003 3.2357 8.7003C3.53655 8.7003 3.72332 8.54441 3.72332 8.29347V8.28859C3.72332 8.05657 3.51253 7.97232 3.31467 7.91147L3.28898 7.90333C3.1398 7.85611 3.0111 7.81542 3.0111 7.71976V7.71469C3.0111 7.63287 3.08632 7.57262 3.2029 7.57262C3.33243 7.57262 3.48621 7.61455 3.58523 7.66786C3.58523 7.66786 3.61427 7.68618 3.62493 7.65871C3.63077 7.64405 3.68092 7.51258 3.68615 7.49834C3.69179 7.48286 3.68176 7.47147 3.67153 7.46536C3.5585 7.3984 3.40221 7.35261 3.24051 7.35261L3.21043 7.35281C2.93507 7.35281 2.74286 7.51481 2.74286 7.74702V7.75191C2.74286 7.99674 2.95492 8.07611 3.15361 8.13147L3.18558 8.14103C3.33036 8.18438 3.4551 8.22162 3.4551 8.32094V8.32583C3.4551 8.4166 3.37404 8.48416 3.24324 8.48416C3.19248 8.48416 3.03056 8.48315 2.85569 8.37547C2.83457 8.36346 2.82226 8.35472 2.80596 8.34516C2.7974 8.33986 2.77588 8.3307 2.76648 8.35838L2.7071 8.51877ZM7.11147 8.51877C7.10228 8.54218 7.11482 8.54707 7.11774 8.55114C7.14531 8.57067 7.17332 8.58473 7.20151 8.60039C7.3511 8.67772 7.49236 8.7003 7.64006 8.7003C7.94091 8.7003 8.1277 8.54441 8.1277 8.29347V8.28859C8.1277 8.05657 7.91689 7.97232 7.71903 7.91147L7.69334 7.90333C7.54416 7.85611 7.41545 7.81542 7.41545 7.71976V7.71469C7.41545 7.63287 7.49066 7.57262 7.60725 7.57262C7.73678 7.57262 7.89055 7.61455 7.98959 7.66786C7.98959 7.66786 8.01863 7.68618 8.02928 7.65871C8.03512 7.64405 8.08527 7.51258 8.0905 7.49834C8.09615 7.48286 8.08611 7.47147 8.07587 7.46536C7.96284 7.3984 7.80656 7.35261 7.64486 7.35261L7.61476 7.35281C7.3394 7.35281 7.14719 7.51481 7.14719 7.74702V7.75191C7.14719 7.99674 7.35925 8.07611 7.55794 8.13147L7.58991 8.14103C7.73469 8.18438 7.85965 8.22162 7.85965 8.32094V8.32583C7.85965 8.4166 7.77837 8.48416 7.64757 8.48416C7.59682 8.48416 7.4349 8.48315 7.26003 8.37547C7.23892 8.36346 7.2264 8.35512 7.21053 8.34516C7.20508 8.3417 7.17959 8.33213 7.17081 8.35838L7.11147 8.51877ZM10.1182 8.02724C10.1182 8.16909 10.0911 8.28081 10.0376 8.35979C9.98471 8.43794 9.9047 8.476 9.79315 8.476C9.68138 8.476 9.60178 8.43814 9.54975 8.35979C9.49709 8.28103 9.47037 8.16909 9.47037 8.02724C9.47037 7.8856 9.49709 7.77407 9.54975 7.69591C9.60178 7.61858 9.68138 7.58093 9.79315 7.58093C9.90471 7.58093 9.98473 7.61858 10.0378 7.69591C10.0911 7.77405 10.1182 7.88559 10.1182 8.02724ZM10.3694 7.7643C10.3447 7.68308 10.3063 7.61145 10.2551 7.55182C10.2039 7.49199 10.1391 7.44396 10.0622 7.40896C9.98555 7.37416 9.89489 7.35646 9.79315 7.35646C9.69119 7.35646 9.60052 7.37416 9.52384 7.40896C9.44695 7.44396 9.38219 7.492 9.33079 7.55182C9.27982 7.61166 9.24137 7.6833 9.21651 7.7643C9.19207 7.84509 9.17973 7.93341 9.17973 8.02724C9.17973 8.12107 9.19207 8.20959 9.21651 8.29018C9.24137 8.37118 9.27961 8.44283 9.33101 8.50266C9.38219 8.56249 9.44717 8.61031 9.52385 8.64429C9.60072 8.67829 9.69119 8.69558 9.79317 8.69558C9.89491 8.69558 9.98537 8.67829 10.0622 8.64429C10.1389 8.61031 10.2039 8.56248 10.2551 8.50266C10.3063 8.44302 10.3447 8.37138 10.3694 8.29018C10.394 8.20939 10.4064 8.12086 10.4064 8.02724C10.4064 7.93362 10.394 7.84509 10.3694 7.7643ZM12.4316 8.43811C12.4233 8.4143 12.3996 8.42325 12.3996 8.42325C12.3631 8.4369 12.3242 8.44951 12.2829 8.45582C12.2409 8.46211 12.1947 8.46539 12.1452 8.46539C12.0236 8.46539 11.9271 8.43018 11.8579 8.36057C11.7885 8.29097 11.7497 8.17843 11.7501 8.0262C11.7505 7.8876 11.7848 7.78339 11.8464 7.70403C11.9076 7.62508 12.0008 7.58456 12.1251 7.58456C12.2288 7.58456 12.3077 7.59616 12.3904 7.6216C12.3904 7.6216 12.4103 7.62994 12.4197 7.60471C12.4416 7.54527 12.4579 7.50274 12.4813 7.43742C12.488 7.41889 12.4717 7.41096 12.4659 7.40871C12.4333 7.3963 12.3564 7.37616 12.2983 7.36761C12.244 7.35947 12.1805 7.3552 12.1099 7.3552C12.0043 7.3552 11.9103 7.3727 11.8299 7.40771C11.7497 7.44251 11.6816 7.49053 11.6277 7.55038C11.5737 7.61022 11.5328 7.68184 11.5054 7.76284C11.4783 7.84363 11.4645 7.93237 11.4645 8.0262C11.4645 8.2291 11.5207 8.39312 11.6316 8.51321C11.7428 8.6337 11.9097 8.69495 12.1274 8.69495C12.2561 8.69495 12.3882 8.66952 12.483 8.63308C12.483 8.63308 12.5012 8.62453 12.4933 8.60399L12.4316 8.43811ZM12.871 7.89135C12.8829 7.81259 12.9053 7.74705 12.9397 7.69598C12.9918 7.61844 13.0712 7.57591 13.1827 7.57591C13.2943 7.57591 13.3681 7.61864 13.4209 7.69598C13.456 7.74705 13.4713 7.81545 13.4773 7.89135H12.871ZM13.7165 7.71815C13.6952 7.63979 13.6424 7.56062 13.6077 7.5244C13.5529 7.467 13.4995 7.42692 13.4464 7.40452C13.377 7.37562 13.2939 7.3565 13.2028 7.3565C13.0967 7.3565 13.0003 7.3738 12.9222 7.40961C12.8439 7.44544 12.7781 7.49429 12.7264 7.55514C12.6748 7.61578 12.636 7.68803 12.6113 7.77005C12.5865 7.85166 12.5739 7.9406 12.5739 8.0344C12.5739 8.12987 12.5869 8.2188 12.6126 8.29878C12.6385 8.37938 12.6798 8.4504 12.7358 8.50921C12.7916 8.56844 12.8635 8.61485 12.9496 8.64718C13.035 8.67935 13.1389 8.69604 13.2582 8.69582C13.5037 8.69501 13.633 8.64169 13.6862 8.61299C13.6957 8.60791 13.7046 8.59896 13.6933 8.57332L13.6378 8.42168C13.6294 8.3991 13.6058 8.40744 13.6058 8.40744C13.545 8.42942 13.4585 8.4689 13.2569 8.4685C13.1251 8.4683 13.0273 8.43045 12.9661 8.37121C12.9032 8.31058 12.8725 8.22142 12.867 8.09566L13.7172 8.09647C13.7172 8.09647 13.7395 8.09607 13.7418 8.07489C13.7427 8.06597 13.7711 7.90478 13.7165 7.71815ZM6.06275 7.89135C6.07486 7.81259 6.09702 7.74705 6.13149 7.69598C6.18351 7.61844 6.2629 7.57591 6.37447 7.57591C6.48603 7.57591 6.55979 7.61864 6.61285 7.69598C6.64773 7.74705 6.66298 7.81545 6.66905 7.89135H6.06275ZM6.90806 7.71815C6.88676 7.63979 6.83411 7.56062 6.79943 7.5244C6.74469 7.467 6.6912 7.42692 6.63814 7.40452C6.56878 7.37562 6.48563 7.3565 6.39454 7.3565C6.28861 7.3565 6.19208 7.3738 6.11395 7.40961C6.03561 7.44544 5.96979 7.49429 5.91819 7.55514C5.86658 7.61578 5.82772 7.68803 5.80307 7.77005C5.77842 7.85166 5.76568 7.9406 5.76568 8.0344C5.76568 8.12987 5.77862 8.2188 5.80433 8.29878C5.83024 8.37938 5.87162 8.4504 5.9276 8.50921C5.98339 8.56844 6.05525 8.61485 6.14133 8.64718C6.22679 8.67935 6.33061 8.69604 6.44991 8.69582C6.6954 8.69501 6.82473 8.64169 6.87801 8.61299C6.88742 8.60791 6.89639 8.59896 6.88511 8.57332L6.82975 8.42168C6.82118 8.3991 6.79758 8.40744 6.79758 8.40744C6.73679 8.42942 6.65049 8.4689 6.44846 8.4685C6.31684 8.4683 6.21907 8.43045 6.15784 8.37121C6.09495 8.31058 6.06425 8.22142 6.0588 8.09566L6.90893 8.09647C6.90893 8.09647 6.93127 8.09607 6.93358 8.07489C6.93438 8.06597 6.96279 7.90478 6.90806 7.71815ZM4.22522 8.43358C4.192 8.40772 4.1874 8.40122 4.17613 8.38453C4.1594 8.35909 4.15084 8.32286 4.15084 8.27687C4.15084 8.204 4.1755 8.1517 4.22669 8.11649C4.22607 8.11671 4.29982 8.05443 4.47322 8.05666C4.59501 8.05829 4.70386 8.07579 4.70386 8.07579V8.4523H4.70407C4.70407 8.4523 4.59606 8.47488 4.47447 8.482C4.30148 8.49219 4.22459 8.43338 4.22522 8.43358ZM4.56346 7.85172C4.52899 7.84928 4.48427 7.84785 4.43079 7.84785C4.35788 7.84785 4.28747 7.8568 4.22145 7.8741C4.15501 7.89139 4.09526 7.91848 4.04386 7.95427C3.99254 7.98996 3.95036 8.03669 3.9206 8.09084C3.89052 8.14538 3.87526 8.2097 3.87526 8.28174C3.87526 8.35501 3.88821 8.41871 3.91412 8.47082C3.94004 8.52312 3.97743 8.56667 4.02505 8.60026C4.07227 8.63384 4.13057 8.65845 4.19825 8.67331C4.2649 8.68817 4.34053 8.69569 4.42327 8.69569C4.51039 8.69569 4.5973 8.68879 4.6815 8.67473C4.76486 8.66088 4.86724 8.64073 4.89564 8.63444C4.91557 8.62977 4.93542 8.62481 4.95519 8.61958C4.9763 8.61451 4.97463 8.59251 4.97463 8.59251L4.9742 7.83523C4.9742 7.66915 4.92866 7.54602 4.83903 7.46971C4.74981 7.3936 4.6184 7.35511 4.44855 7.35511C4.38482 7.35511 4.28224 7.36368 4.22082 7.37568C4.22082 7.37568 4.03508 7.41069 3.95861 7.46889C3.95861 7.46889 3.9419 7.47907 3.95109 7.50187L4.01127 7.6594C4.01879 7.67975 4.03906 7.67283 4.03906 7.67283C4.03906 7.67283 4.04554 7.67038 4.05307 7.66611C4.21666 7.57941 4.42349 7.58206 4.42349 7.58206C4.51543 7.58206 4.58604 7.59996 4.63367 7.63557C4.68005 7.67017 4.70366 7.72247 4.70366 7.83277V7.86778C4.63053 7.85761 4.56346 7.85172 4.56346 7.85172ZM11.4201 7.42503C11.4265 7.4063 11.413 7.39734 11.4073 7.39531C11.3929 7.38982 11.3206 7.37496 11.2648 7.3715C11.1581 7.36519 11.0988 7.3827 11.0457 7.40589C10.993 7.42909 10.9345 7.46653 10.9019 7.50908V7.40834C10.9019 7.3943 10.8917 7.3831 10.8775 7.3831H10.6596C10.6454 7.3831 10.6351 7.39428 10.6351 7.40834V8.64348C10.6351 8.65732 10.6468 8.66872 10.661 8.66872H10.8844C10.8912 8.66868 10.8978 8.66601 10.9026 8.66127C10.9074 8.65654 10.9101 8.65014 10.9101 8.64348V8.02642C10.9101 7.94359 10.9195 7.86097 10.9383 7.80907C10.9567 7.75778 10.9818 7.71667 11.0127 7.68716C11.0438 7.65785 11.0791 7.6373 11.1178 7.6257C11.1572 7.61389 11.2009 7.61003 11.2318 7.61003C11.2763 7.61003 11.3252 7.62121 11.3252 7.62121C11.3415 7.62304 11.3507 7.61328 11.3561 7.59883C11.3708 7.56098 11.4121 7.44761 11.4201 7.42503Z" fill="white"/>
<path d="M9.32366 6.85258C9.2965 6.84444 9.27185 6.83894 9.23966 6.83305C9.20706 6.82735 9.16821 6.82449 9.12414 6.82449C8.97035 6.82449 8.84917 6.86682 8.76415 6.95026C8.67953 7.03331 8.62206 7.15969 8.59323 7.32597L8.58278 7.38193H8.38975C8.38975 7.38193 8.36634 7.38111 8.36132 7.40595L8.32979 7.57832C8.32748 7.59461 8.33481 7.60498 8.35736 7.60498H8.54519L8.35464 8.64129C8.3398 8.72474 8.32267 8.79333 8.30365 8.84541C8.28505 8.89671 8.26689 8.93517 8.24433 8.96325C8.2226 8.99013 8.20212 9.01006 8.16659 9.02166C8.13734 9.03123 8.1035 9.0357 8.06652 9.0357C8.04604 9.0357 8.01869 9.03243 7.99841 9.02837C7.97836 9.02449 7.9677 9.02023 7.95245 9.01391C7.95245 9.01391 7.93051 9.00579 7.92173 9.02715C7.91483 9.04486 7.8647 9.17896 7.85863 9.19546C7.85279 9.21194 7.86114 9.22477 7.87179 9.22863C7.89686 9.23718 7.91545 9.24287 7.94951 9.25081C7.99674 9.26161 8.03663 9.26221 8.07402 9.26221C8.15216 9.26221 8.22361 9.25142 8.28275 9.23067C8.34209 9.20971 8.39389 9.17327 8.43985 9.12403C8.48937 9.0707 8.5205 9.01494 8.55018 8.93863C8.57963 8.86332 8.60493 8.7697 8.62497 8.66063L8.81656 7.60498H9.09652C9.09652 7.60498 9.12011 7.6058 9.12494 7.58077L9.15668 7.4086C9.15878 7.39212 9.15168 7.38194 9.12889 7.38194H8.85708C8.85855 7.37605 8.87087 7.28282 8.90201 7.19512C8.91538 7.15788 8.94044 7.12755 8.96156 7.10678C8.98246 7.08643 9.00648 7.07199 9.03282 7.06364C9.05976 7.05509 9.09049 7.05102 9.12412 7.05102C9.14961 7.05102 9.17487 7.05387 9.19389 7.05773C9.22021 7.06324 9.23044 7.06608 9.23736 7.06813C9.26515 7.07627 9.26889 7.06833 9.27434 7.05531L9.33932 6.88151C9.346 6.86275 9.3295 6.85481 9.32366 6.85258ZM5.52589 8.64354C5.52589 8.65738 5.51565 8.66858 5.50144 8.66858H5.27601C5.2618 8.66858 5.25177 8.65738 5.25177 8.64354V6.87619C5.25177 6.86236 5.2618 6.85116 5.27601 6.85116H5.50144C5.51565 6.85116 5.52589 6.86236 5.52589 6.87619V8.64354Z" fill="white"/>
</svg>
