<svg width="47" height="22" viewBox="0 0 47 22" fill="none" xmlns="http://www.w3.org/2000/svg">
<path d="M41.4698 0.338867C42.3004 0.338867 42.944 0.338783 43.459 0.380859C43.9779 0.423268 44.3964 0.510049 44.7715 0.701172C45.3971 1.01997 45.9058 1.5287 46.2246 2.1543C46.4158 2.5294 46.5025 2.94794 46.545 3.4668C46.587 3.98179 46.5869 4.62539 46.5869 5.45605V8.59375C46.5869 9.42445 46.587 10.068 46.545 10.583C46.5025 11.1019 46.4158 11.5204 46.2246 11.8955C45.9059 12.5211 45.3971 13.0298 44.7715 13.3486C44.3964 13.5398 43.9779 13.6265 43.459 13.6689C42.944 13.711 42.3004 13.7109 41.4698 13.7109H0.338898V5.45605C0.338898 4.62538 0.338813 3.98179 0.38089 3.4668C0.423298 2.94794 0.510077 2.5294 0.701202 2.1543C1.02 1.5287 1.52873 1.01997 2.15433 0.701172C2.52943 0.510046 2.94797 0.423267 3.46683 0.380859C3.98182 0.338783 4.62542 0.338867 5.45609 0.338867H41.4698Z" fill="#6647F0"/>
<path d="M41.4698 0.338867C42.3004 0.338867 42.944 0.338783 43.459 0.380859C43.9779 0.423268 44.3964 0.510049 44.7715 0.701172C45.3971 1.01997 45.9058 1.5287 46.2246 2.1543C46.4158 2.5294 46.5025 2.94794 46.545 3.4668C46.587 3.98179 46.5869 4.62539 46.5869 5.45605V8.59375C46.5869 9.42445 46.587 10.068 46.545 10.583C46.5025 11.1019 46.4158 11.5204 46.2246 11.8955C45.9059 12.5211 45.3971 13.0298 44.7715 13.3486C44.3964 13.5398 43.9779 13.6265 43.459 13.6689C42.944 13.711 42.3004 13.7109 41.4698 13.7109H0.338898V5.45605C0.338898 4.62538 0.338813 3.98179 0.38089 3.4668C0.423298 2.94794 0.510077 2.5294 0.701202 2.1543C1.02 1.5287 1.52873 1.01997 2.15433 0.701172C2.52943 0.510046 2.94797 0.423267 3.46683 0.380859C3.98182 0.338783 4.62542 0.338867 5.45609 0.338867H41.4698Z" stroke="#6647F0" stroke-width="0.677778"/>
<path d="M6.70867 9.65964C6.29033 9.65964 5.92588 9.5942 5.61533 9.46331C5.30478 9.32985 5.05968 9.14506 4.88002 8.90894C4.70037 8.67282 4.59771 8.39948 4.57204 8.08893L4.56819 8.03889H5.41899L5.42284 8.08123C5.44081 8.24806 5.50625 8.39307 5.61918 8.51626C5.73467 8.63945 5.88867 8.7357 6.08116 8.80499C6.27621 8.87429 6.49821 8.90894 6.74717 8.90894C6.98072 8.90894 7.18861 8.87172 7.37083 8.79729C7.55306 8.72286 7.6955 8.6202 7.79816 8.48931C7.90339 8.35842 7.956 8.20828 7.956 8.03889V8.03504C7.956 7.82202 7.87515 7.64493 7.71346 7.50377C7.55177 7.36261 7.28742 7.25225 6.92041 7.17269L6.31214 7.04564C5.75007 6.92502 5.34071 6.73381 5.08406 6.47203C4.82741 6.20767 4.69908 5.87018 4.69908 5.45953V5.45568C4.70165 5.13487 4.78763 4.85255 4.95702 4.60873C5.12898 4.36491 5.36638 4.17499 5.66923 4.03896C5.97208 3.90294 6.31984 3.83492 6.71252 3.83492C7.1052 3.83492 7.44783 3.90294 7.74041 4.03896C8.03556 4.17242 8.26783 4.35465 8.43722 4.58563C8.60918 4.81662 8.70542 5.07712 8.72596 5.36714L8.72981 5.41718H7.8867L7.879 5.36714C7.8559 5.21571 7.79302 5.08097 7.69036 4.96291C7.59027 4.84485 7.45553 4.75246 7.28614 4.68573C7.11931 4.61643 6.92426 4.58307 6.70097 4.58563C6.48538 4.58563 6.29289 4.619 6.1235 4.68573C5.95411 4.74989 5.81937 4.84357 5.71928 4.96676C5.62175 5.08995 5.57298 5.23881 5.57298 5.41334V5.41718C5.57298 5.62251 5.65126 5.79446 5.80782 5.93306C5.96694 6.06908 6.22488 6.17559 6.58163 6.25259L7.18989 6.38733C7.57744 6.46946 7.89184 6.57854 8.13309 6.71456C8.37434 6.85059 8.55015 7.01869 8.66051 7.21888C8.77344 7.41651 8.8299 7.65263 8.8299 7.92724V7.93109C8.8299 8.28527 8.74264 8.59197 8.56811 8.85119C8.39616 9.10784 8.15105 9.30675 7.83281 9.44791C7.51456 9.58907 7.13985 9.65964 6.70867 9.65964ZM10.9935 9.5942C10.7291 9.5942 10.4917 9.54415 10.2813 9.44406C10.0734 9.3414 9.90912 9.19639 9.7885 9.00903C9.66787 8.82168 9.60756 8.60224 9.60756 8.35072V8.34302C9.60756 8.0915 9.66787 7.8772 9.7885 7.70011C9.91169 7.52302 10.0888 7.38442 10.3198 7.28433C10.5533 7.18167 10.8356 7.12007 11.1667 7.09954L12.7105 7.00714V7.59616L11.2822 7.68856C10.9948 7.70652 10.783 7.76812 10.647 7.87335C10.511 7.97601 10.443 8.12102 10.443 8.30837V8.31607C10.443 8.50599 10.5161 8.65613 10.6624 8.7665C10.8087 8.87429 10.9935 8.92819 11.2168 8.92819C11.4247 8.92819 11.6094 8.88712 11.7711 8.80499C11.9354 8.7203 12.0637 8.60737 12.1561 8.46621C12.2485 8.32249 12.2947 8.1608 12.2947 7.98114V6.66451C12.2947 6.43353 12.2228 6.25772 12.0791 6.13709C11.938 6.0139 11.7275 5.9523 11.4478 5.9523C11.2142 5.9523 11.023 5.99337 10.8741 6.0755C10.7278 6.15763 10.6303 6.27312 10.5816 6.42198L10.5739 6.43353H9.76925L9.7731 6.40658C9.80646 6.17559 9.89757 5.9754 10.0464 5.80601C10.1979 5.63406 10.3955 5.5006 10.6393 5.40564C10.8857 5.31067 11.1667 5.26319 11.4824 5.26319C11.834 5.26319 12.1317 5.31966 12.3755 5.43258C12.6219 5.54294 12.808 5.70335 12.9338 5.91381C13.0621 6.1217 13.1263 6.37193 13.1263 6.66451V9.5249H12.2947V8.93204H12.2331C12.151 9.07319 12.0483 9.19382 11.9251 9.29392C11.8019 9.39144 11.6621 9.46587 11.5055 9.5172C11.3489 9.56853 11.1783 9.5942 10.9935 9.5942ZM14.3043 9.5249V5.34404H15.1397V5.98695H15.2051C15.2975 5.75597 15.4413 5.57759 15.6363 5.45183C15.8339 5.32607 16.0701 5.26319 16.3447 5.26319C16.5346 5.26319 16.7053 5.29399 16.8567 5.35559C17.0081 5.41718 17.1377 5.50445 17.2455 5.61737C17.3559 5.72773 17.4419 5.85863 17.5035 6.01005H17.5689C17.6382 5.85863 17.7357 5.72773 17.8615 5.61737C17.9872 5.50445 18.1335 5.41718 18.3004 5.35559C18.4698 5.29399 18.6494 5.26319 18.8393 5.26319C19.1217 5.26319 19.3629 5.31837 19.5631 5.42873C19.7633 5.53653 19.916 5.69309 20.0212 5.89841C20.1264 6.10373 20.1791 6.3514 20.1791 6.64142V9.5249H19.3437V6.8416C19.3437 6.64912 19.3141 6.48999 19.2551 6.36423C19.1961 6.23591 19.1063 6.13966 18.9856 6.0755C18.8676 6.01133 18.7187 5.97925 18.5391 5.97925C18.362 5.97925 18.2067 6.02032 18.0732 6.10245C17.9423 6.18201 17.8397 6.2898 17.7652 6.42583C17.6934 6.55929 17.6575 6.71071 17.6575 6.8801V9.5249H16.822V6.75691C16.822 6.59778 16.7887 6.46048 16.722 6.34498C16.6578 6.22692 16.5654 6.13709 16.4448 6.0755C16.3241 6.01133 16.1817 5.97925 16.0174 5.97925C15.8506 5.97925 15.7005 6.02288 15.567 6.11015C15.4361 6.19741 15.3322 6.31547 15.2552 6.46433C15.1782 6.61062 15.1397 6.77487 15.1397 6.9571V9.5249H14.3043ZM22.743 9.60575C22.4299 9.60575 22.1655 9.54543 21.95 9.42481C21.7369 9.30161 21.5765 9.12453 21.4687 8.89354C21.3635 8.65998 21.3109 8.37895 21.3109 8.05044V5.34404H22.1463V7.8541C22.1463 8.19801 22.2143 8.45595 22.3503 8.6279C22.4864 8.79986 22.7084 8.88584 23.0163 8.88584C23.1806 8.88584 23.3269 8.86146 23.4552 8.81269C23.5835 8.76136 23.6913 8.68822 23.7786 8.59326C23.8659 8.49829 23.93 8.38408 23.9711 8.25062C24.0147 8.11717 24.0365 7.96574 24.0365 7.79635V5.34404H24.8758V9.5249H24.0365V8.89354H23.9749C23.9082 9.0424 23.8171 9.17072 23.7016 9.27852C23.5861 9.38374 23.4475 9.46459 23.2858 9.52105C23.1267 9.57752 22.9458 9.60575 22.743 9.60575ZM27.8324 9.60575C27.4243 9.60575 27.074 9.51849 26.7814 9.34396C26.4888 9.16687 26.263 8.91664 26.1039 8.59326C25.9473 8.26987 25.869 7.88746 25.869 7.44602V7.44217C25.869 7.00586 25.9473 6.62473 26.1039 6.29878C26.263 5.97284 26.4863 5.71875 26.7737 5.53653C27.0637 5.35431 27.4025 5.26319 27.7901 5.26319C28.1802 5.26319 28.5151 5.35046 28.7949 5.52498C29.0772 5.6995 29.2941 5.94461 29.4455 6.26029C29.5969 6.5734 29.6726 6.94042 29.6726 7.36132V7.65391H26.2925V7.05719H29.2568L28.8565 7.61156V7.27663C28.8565 6.97891 28.8103 6.73253 28.7179 6.53747C28.628 6.33985 28.5036 6.19227 28.3444 6.09475C28.1853 5.99722 28.0018 5.94845 27.7939 5.94845C27.586 5.94845 27.4 5.99979 27.2357 6.10245C27.074 6.20254 26.9457 6.3514 26.8507 6.54902C26.7583 6.74664 26.7121 6.98918 26.7121 7.27663V7.61156C26.7121 7.88618 26.7583 8.12102 26.8507 8.31607C26.9431 8.51113 27.074 8.65998 27.2434 8.76265C27.4154 8.86531 27.6181 8.91664 27.8517 8.91664C28.0313 8.91664 28.1853 8.89225 28.3136 8.84349C28.4445 8.79216 28.551 8.72928 28.6332 8.65485C28.7179 8.58042 28.7756 8.50728 28.8064 8.43541L28.8218 8.40462H29.6303L29.6226 8.43926C29.5866 8.57786 29.5238 8.71645 29.4339 8.85504C29.3441 8.99107 29.2248 9.11554 29.0759 9.22847C28.9296 9.3414 28.7525 9.43251 28.5446 9.5018C28.3393 9.5711 28.1019 9.60575 27.8324 9.60575ZM30.7044 9.5249V3.70403H31.5398V9.5249H30.7044ZM35.0277 9.5249V3.96967H35.89V6.31803H38.7389V3.96967H39.6051V9.5249H38.7389V7.06489H35.89V9.5249H35.0277ZM41.5492 9.5865C41.3901 9.5865 41.2553 9.53132 41.145 9.42096C41.0372 9.3106 40.9833 9.17842 40.9833 9.02443C40.9833 8.86531 41.0372 8.73185 41.145 8.62405C41.2553 8.51626 41.3901 8.46236 41.5492 8.46236C41.7109 8.46236 41.8456 8.51626 41.9534 8.62405C42.0612 8.73185 42.1151 8.86531 42.1151 9.02443C42.1151 9.17842 42.0612 9.3106 41.9534 9.42096C41.8456 9.53132 41.7109 9.5865 41.5492 9.5865Z" fill="white"/>
<path d="M0.677765 21.0111V8.1333" stroke="#6647F0" stroke-width="1.35556" stroke-linecap="round"/>
</svg>
