<svg width="20" height="20" viewBox="0 0 20 20" fill="none" xmlns="http://www.w3.org/2000/svg">
<path fill-rule="evenodd" clip-rule="evenodd" d="M3.64306 3.49979L5.21723 9.16678H15.6538C15.5856 9.11619 15.5144 9.0644 15.4401 9.01147C14.5103 8.34902 13.2058 7.57797 11.7497 6.8163C8.92733 5.33997 5.67307 3.9701 3.64306 3.49979ZM15.6538 10.8334C15.5856 10.884 15.5144 10.9358 15.4401 10.9888C14.5103 11.6512 13.2058 12.4223 11.7497 13.1839C8.92732 14.6603 5.67307 16.0302 3.64306 16.5005L5.21723 10.8334H15.6538ZM3.71894 10.0001L1.991 3.77954C1.84618 3.2582 1.9625 2.71507 2.29157 2.32044C2.63005 1.91454 3.17194 1.69737 3.75355 1.81777C5.99458 2.28171 9.5567 3.78827 12.5222 5.33947C14.0139 6.11978 15.3917 6.93055 16.4072 7.65408C16.912 8.01375 17.353 8.36987 17.6768 8.70571C17.8384 8.87342 17.9901 9.05572 18.1058 9.24886C18.2162 9.43321 18.3338 9.69342 18.3338 10.0001C18.3338 10.3068 18.2162 10.567 18.1058 10.7514C17.9901 10.9445 17.8384 11.1268 17.6768 11.2945C17.353 11.6303 16.912 11.9865 16.4072 12.3461C15.3917 13.0697 14.0139 13.8805 12.5222 14.6608C9.5567 16.212 5.99458 17.7186 3.75354 18.1825C3.17194 18.3029 2.63005 18.0857 2.29157 17.6798C1.9625 17.2852 1.84618 16.7421 1.99099 16.2207L3.71894 10.0001Z" fill="#5E42DE"/>
</svg>
