<svg width="16" height="16" viewBox="0 0 16 16" fill="none" xmlns="http://www.w3.org/2000/svg">
<path d="M8.50021 13.2501C8.50021 13.9404 9.05981 14.5 9.75011 14.5C10.4404 14.5 11 13.9404 11 13.2501C11 12.5597 10.4404 12 9.75 12L8.50021 12L8.50021 13.2501ZM8.50021 9.75C8.50021 10.4404 9.05986 11 9.75021 11L13.25 11C13.9404 11 14.5 10.4404 14.5 9.75C14.5 9.05964 13.9404 8.5 13.25 8.5L9.75021 8.5C9.05986 8.5 8.50021 9.05964 8.50021 9.75Z" fill="#2EB67D"/>
<path d="M7.49979 2.74989C7.49979 2.0596 6.94019 1.5 6.24989 1.5C5.5596 1.5 5 2.05965 5 2.74995C5 3.4403 5.55965 4 6.25 4L7.49979 4L7.49979 2.74989ZM7.49979 6.25C7.49979 5.55965 6.94014 5 6.24979 5L2.75 5C2.05964 5 1.5 5.55964 1.5 6.25C1.5 6.94036 2.05964 7.5 2.75 7.5L6.24979 7.5C6.94014 7.5 7.49979 6.94036 7.49979 6.25Z" fill="#E01E5A"/>
<path d="M2.74989 8.50022C2.0596 8.50022 1.5 9.05981 1.5 9.75011C1.5 10.4404 2.05965 11 2.74995 11C3.4403 11 4 10.4404 4 9.75L4 8.50022L2.74989 8.50022ZM6.25 8.50022C5.55964 8.50022 5 9.05986 5 9.75022L5 13.25C5 13.9404 5.55964 14.5 6.25 14.5C6.94036 14.5 7.5 13.9404 7.5 13.25L7.5 9.75022C7.5 9.05986 6.94036 8.50022 6.25 8.50022Z" fill="#ECB22E"/>
<path d="M13.2501 7.49979C13.9404 7.49979 14.5 6.94019 14.5 6.24989C14.5 5.5596 13.9403 5 13.2501 5C12.5597 5 12 5.55965 12 6.25L12 7.49979L13.2501 7.49979ZM9.75 7.49979C10.4404 7.49979 11 6.94014 11 6.24979L11 2.75C11 2.05964 10.4404 1.5 9.75 1.5C9.05964 1.5 8.5 2.05964 8.5 2.75L8.5 6.24979C8.5 6.94014 9.05964 7.49979 9.75 7.49979Z" fill="#36C5F0"/>
</svg>
