<svg xmlns="http://www.w3.org/2000/svg" width="40" height="40" fill="none"><path fill="#202020" d="M16.625 3.014a.375.375 0 0 0 .75 0h.75a.375.375 0 0 0 .75 0h.75a.375.375 0 0 0 .75 0h.75a.375.375 0 0 0 .75 0h.75a.375.375 0 0 0 .75 0h.125q.327 0 .634.067a.375.375 0 0 0 .612.203 3 3 0 0 1 1.754 2.73v1.208a.374.374 0 0 0 0 .558v2.442a.374.374 0 0 0 0 .558v2.442a.374.374 0 0 0 0 .558v2.442a.374.374 0 0 0 0 .558V18h-.125a.375.375 0 0 0-.75 0h-.75a.375.375 0 0 0-.75 0h-.75a.375.375 0 0 0-.75 0h-.75a.375.375 0 0 0-.75 0h-.75a.375.375 0 0 0-.75 0h-.75a.375.375 0 0 0-.75 0h-.75a.375.375 0 0 0-.75 0h-.75a.375.375 0 0 0-.75 0h-.75a.375.375 0 0 0-.75 0H13.5v-1.22a.374.374 0 0 0 0-.558V13.78a.374.374 0 0 0 0-.558V10.78a.374.374 0 0 0 0-.558V7.78a.374.374 0 0 0 0-.558V6.014a3 3 0 0 1 1.754-2.73.374.374 0 0 0 .612-.203q.307-.066.634-.067zM14.75 16.126a.375.375 0 1 0 0 .75.375.375 0 0 0 0-.75m1.5 0a.375.375 0 1 0 0 .75.375.375 0 0 0 0-.75m1.5 0a.375.375 0 1 0 0 .75.375.375 0 0 0 0-.75m1.5 0a.375.375 0 1 0 0 .75.375.375 0 0 0 0-.75m1.5 0a.375.375 0 1 0 0 .75.375.375 0 0 0 0-.75m1.5 0a.375.375 0 1 0 0 .75.375.375 0 0 0 0-.75m1.5 0a.375.375 0 1 0 0 .75.375.375 0 0 0 0-.75m1.5 0a.375.375 0 1 0 0 .75.375.375 0 0 0 0-.75M14 14.626a.375.375 0 1 0 0 .75.375.375 0 0 0 0-.75m1.5 0a.375.375 0 1 0 0 .75.375.375 0 0 0 0-.75m1.5 0a.375.375 0 1 0 0 .75.375.375 0 0 0 0-.75m1.5 0a.375.375 0 1 0 0 .75.375.375 0 0 0 0-.75m1.5 0a.375.375 0 1 0 0 .75.375.375 0 0 0 0-.75m1.5 0a.375.375 0 1 0 0 .75.375.375 0 0 0 0-.75m1.5 0a.375.375 0 1 0 0 .75.375.375 0 0 0 0-.75m1.5 0a.375.375 0 1 0 0 .75.375.375 0 0 0 0-.75m1.5 0a.375.375 0 1 0 0 .75.375.375 0 0 0 0-.75m-11.25-1.5a.375.375 0 1 0 0 .75.375.375 0 0 0 0-.75m1.5 0a.375.375 0 1 0 0 .75.375.375 0 0 0 0-.75m1.5 0a.375.375 0 1 0 0 .75.375.375 0 0 0 0-.75m1.5 0a.375.375 0 1 0 0 .75.375.375 0 0 0 0-.75m1.5 0a.375.375 0 1 0 0 .75.375.375 0 0 0 0-.75m1.5 0a.375.375 0 1 0 0 .75.375.375 0 0 0 0-.75m1.5 0a.375.375 0 1 0 0 .75.375.375 0 0 0 0-.75m1.5 0a.375.375 0 1 0 0 .75.375.375 0 0 0 0-.75M14 11.626a.375.375 0 1 0 0 .75.375.375 0 0 0 0-.75m1.5 0a.375.375 0 1 0 0 .75.375.375 0 0 0 0-.75m1.5 0a.375.375 0 1 0 0 .75.375.375 0 0 0 0-.75m1.5 0a.375.375 0 1 0 0 .75.375.375 0 0 0 0-.75m1.5 0a.375.375 0 1 0 0 .75.375.375 0 0 0 0-.75m1.5 0a.375.375 0 1 0 0 .75.375.375 0 0 0 0-.75m1.5 0a.375.375 0 1 0 0 .75.375.375 0 0 0 0-.75m1.5 0a.375.375 0 1 0 0 .75.375.375 0 0 0 0-.75m1.5 0a.375.375 0 1 0 0 .75.375.375 0 0 0 0-.75m-11.25-1.5a.375.375 0 1 0 0 .75.375.375 0 0 0 0-.75m1.5 0a.375.375 0 1 0 0 .75.375.375 0 0 0 0-.75m1.5 0a.375.375 0 1 0 0 .75.375.375 0 0 0 0-.75m1.5 0a.375.375 0 1 0 0 .75.375.375 0 0 0 0-.75m1.5 0a.375.375 0 1 0 0 .75.375.375 0 0 0 0-.75m1.5 0a.375.375 0 1 0 0 .75.375.375 0 0 0 0-.75m1.5 0a.375.375 0 1 0 0 .75.375.375 0 0 0 0-.75m1.5 0a.375.375 0 1 0 0 .75.375.375 0 0 0 0-.75M14 8.626a.375.375 0 1 0 0 .75.375.375 0 0 0 0-.75m1.5 0a.375.375 0 1 0 0 .75.375.375 0 0 0 0-.75m1.5 0a.375.375 0 1 0 0 .75.375.375 0 0 0 0-.75m1.5 0a.375.375 0 1 0 0 .75.375.375 0 0 0 0-.75m1.5 0a.375.375 0 1 0 0 .75.375.375 0 0 0 0-.75m1.5 0a.375.375 0 1 0 0 .75.375.375 0 0 0 0-.75m1.5 0a.375.375 0 1 0 0 .75.375.375 0 0 0 0-.75m1.5 0a.375.375 0 1 0 0 .75.375.375 0 0 0 0-.75m1.5 0a.375.375 0 1 0 0 .75.375.375 0 0 0 0-.75m-11.25-1.5a.375.375 0 1 0 0 .75.375.375 0 0 0 0-.75m1.5 0a.375.375 0 1 0 0 .75.375.375 0 0 0 0-.75m1.5 0a.375.375 0 1 0 0 .75.375.375 0 0 0 0-.75m1.5 0a.375.375 0 1 0 0 .75.375.375 0 0 0 0-.75m1.5 0a.375.375 0 1 0 0 .75.375.375 0 0 0 0-.75m1.5 0a.375.375 0 1 0 0 .75.375.375 0 0 0 0-.75m1.5 0a.375.375 0 1 0 0 .75.375.375 0 0 0 0-.75m1.5 0a.375.375 0 1 0 0 .75.375.375 0 0 0 0-.75M14 5.626a.375.375 0 1 0 0 .75.375.375 0 0 0 0-.75m1.5 0a.375.375 0 1 0 0 .75.375.375 0 0 0 0-.75m1.5 0a.375.375 0 1 0 0 .75.375.375 0 0 0 0-.75m1.5 0a.375.375 0 1 0 0 .75.375.375 0 0 0 0-.75m1.5 0a.375.375 0 1 0 0 .75.375.375 0 0 0 0-.75m1.5 0a.375.375 0 1 0 0 .75.375.375 0 0 0 0-.75m1.5 0a.375.375 0 1 0 0 .75.375.375 0 0 0 0-.75m1.5 0a.375.375 0 1 0 0 .75.375.375 0 0 0 0-.75m1.5 0a.375.375 0 1 0 0 .75.375.375 0 0 0 0-.75m-11.25-1.5a.375.375 0 1 0 0 .75.375.375 0 0 0 0-.75m1.5 0a.375.375 0 1 0 0 .75.375.375 0 0 0 0-.75m1.5 0a.375.375 0 1 0 0 .75.375.375 0 0 0 0-.75m1.5 0a.375.375 0 1 0 0 .75.375.375 0 0 0 0-.75m1.5 0a.375.375 0 1 0 0 .75.375.375 0 0 0 0-.75m1.5 0a.375.375 0 1 0 0 .75.375.375 0 0 0 0-.75m1.5 0a.375.375 0 1 0 0 .75.375.375 0 0 0 0-.75m1.5 0a.375.375 0 1 0 0 .75.375.375 0 0 0 0-.75M20 24a1 1 0 1 1 0 2 1 1 0 0 1 0-2"/><path fill="#202020" fill-rule="evenodd" d="M9.75 20.25h3.75v-1.219c0-.017.014-.031.031-.031H26.47c.017 0 .031.014.031.031v1.219h3.75v-.75a.5.5 0 0 1 .5-.5h.5a.5.5 0 0 1 .5.5v3a.5.5 0 0 1-.5.5h-.5a.5.5 0 0 1-.5-.5v-.75h-.5v6.248a6.25 6.25 0 0 1-6.25 6.25h-2.75v4.002h3.75a.5.5 0 0 1 .5.5v.5a.5.5 0 0 1-.5.5h-9a.5.5 0 0 1-.5-.5v-.5a.5.5 0 0 1 .5-.5h3.75v-4.002H16.5a6.25 6.25 0 0 1-6.25-6.25V21.75h-.5v.75a.5.5 0 0 1-.5.5h-.5a.5.5 0 0 1-.5-.5v-3a.5.5 0 0 1 .5-.5h.5a.5.5 0 0 1 .5.5zm2 7.748a4.75 4.75 0 0 0 4.75 4.75h7a4.75 4.75 0 0 0 4.75-4.75V21.75H26.5V28a3 3 0 0 1-3 3h-7a3 3 0 0 1-3-3v-6.25h-1.75zM20 23a2 2 0 1 0 0 4 2 2 0 0 0 0-4" clip-rule="evenodd"/></svg>