<svg width="14" height="14" viewBox="0 0 14 14" fill="none" xmlns="http://www.w3.org/2000/svg">
<path d="M2.27054 2.63305C1.94537 2.64956 1.7561 2.89389 1.75175 3.21946C1.75066 3.30073 1.75 3.39379 1.75 3.5C1.75 3.60621 1.75066 3.69927 1.75175 3.78054C1.7561 4.10611 1.94537 4.35044 2.27054 4.36695C2.36876 4.37193 2.48576 4.375 2.625 4.375C2.76424 4.375 2.88125 4.37193 2.97946 4.36695C3.30463 4.35044 3.4939 4.10611 3.49825 3.78054C3.49934 3.69927 3.5 3.60621 3.5 3.5C3.5 3.39379 3.49934 3.30073 3.49825 3.21946C3.4939 2.89389 3.30464 2.64956 2.97946 2.63305C2.88125 2.62807 2.76424 2.625 2.625 2.625C2.48576 2.625 2.36876 2.62807 2.27054 2.63305Z" fill="#B4B4B4"/>
<path d="M2.27054 6.13305C1.94537 6.14955 1.7561 6.3939 1.75175 6.71945C1.75066 6.80073 1.75 6.89378 1.75 7C1.75 7.10623 1.75066 7.19928 1.75175 7.28055C1.7561 7.6061 1.94537 7.85045 2.27054 7.86695C2.36876 7.87193 2.48576 7.875 2.625 7.875C2.76424 7.875 2.88125 7.87193 2.97946 7.86695C3.30463 7.85045 3.4939 7.6061 3.49826 7.28055C3.49934 7.19928 3.5 7.10623 3.5 7C3.5 6.89378 3.49934 6.80073 3.49826 6.71945C3.4939 6.3939 3.30464 6.14955 2.97946 6.13305C2.88125 6.12807 2.76424 6.125 2.625 6.125C2.48576 6.125 2.36876 6.12807 2.27054 6.13305Z" fill="#B4B4B4"/>
<path d="M1.75175 10.2195C1.7561 9.8939 1.94537 9.64955 2.27054 9.63305C2.36876 9.62808 2.48576 9.625 2.625 9.625C2.76424 9.625 2.88125 9.62808 2.97946 9.63305C3.30464 9.64955 3.4939 9.8939 3.49826 10.2195C3.49934 10.3007 3.5 10.3938 3.5 10.5C3.5 10.6062 3.49934 10.6993 3.49826 10.7806C3.4939 11.1061 3.30463 11.3505 2.97946 11.367C2.88125 11.3719 2.76424 11.375 2.625 11.375C2.48576 11.375 2.36876 11.3719 2.27054 11.367C1.94537 11.3505 1.7561 11.1061 1.75175 10.7806C1.75066 10.6993 1.75 10.6062 1.75 10.5C1.75 10.3938 1.75066 10.3007 1.75175 10.2195Z" fill="#B4B4B4"/>
<path d="M5.13333 2.9061C4.88833 2.91777 4.69 3.05777 4.6725 3.2911C4.66667 3.34943 4.66667 3.4136 4.66667 3.48943C4.66667 3.52983 4.66832 3.56692 4.66987 3.60158C4.67123 3.63197 4.6725 3.66052 4.6725 3.68777C4.69 3.9211 4.88833 4.0611 5.13333 4.07277C5.5475 4.09027 6.83666 4.10776 8.45832 4.10776C10.08 4.10776 11.3691 4.09027 11.7833 4.07277C12.0283 4.0611 12.2266 3.9211 12.2441 3.68777C12.25 3.62943 12.25 3.56527 12.25 3.48943C12.25 3.44905 12.2483 3.41197 12.2468 3.37732C12.2454 3.34692 12.2441 3.31836 12.2441 3.2911C12.2266 3.05777 12.0283 2.91777 11.7833 2.9061C11.3691 2.8886 10.08 2.87109 8.45832 2.87109C6.83666 2.87109 5.5475 2.8886 5.13333 2.9061Z" fill="#B4B4B4"/>
<path d="M4.6725 6.80276C4.69 6.56943 4.88833 6.42943 5.13333 6.41776C5.5475 6.40026 6.83666 6.38275 8.45832 6.38275C10.08 6.38275 11.3691 6.40026 11.7833 6.41776C12.0283 6.42943 12.2266 6.56943 12.2441 6.80276C12.2441 6.82999 12.2454 6.85849 12.2468 6.88886C12.2483 6.92344 12.25 6.9608 12.25 7.00109C12.25 7.07693 12.25 7.14109 12.2441 7.19943C12.2266 7.43276 12.0283 7.57276 11.7833 7.58443C11.3691 7.60193 10.08 7.61942 8.45832 7.61942C6.83666 7.61942 5.5475 7.60193 5.13333 7.58443C4.88833 7.57276 4.69 7.43276 4.6725 7.19943C4.6725 7.17218 4.67123 7.14367 4.66987 7.11328C4.66832 7.07862 4.66667 7.04149 4.66667 7.00109C4.66667 6.92526 4.66667 6.8611 4.6725 6.80276Z" fill="#B4B4B4"/>
<path d="M4.6725 10.3086C4.69 10.0753 4.88833 9.93527 5.13333 9.9236C5.5475 9.9061 7.12835 9.88859 8.75001 9.88859C10.3717 9.88859 11.3692 9.89917 11.7833 9.91667C12.0283 9.92833 12.2267 10.0683 12.2442 10.3017C12.2442 10.3289 12.2454 10.3575 12.2468 10.3879C12.2483 10.4225 12.25 10.4596 12.25 10.5C12.25 10.5758 12.25 10.64 12.2442 10.6983C12.2267 10.9317 12.0283 11.0717 11.7833 11.0833C11.3692 11.1008 10.3717 11.1253 8.75001 11.1253C7.12835 11.1253 5.5475 11.1078 5.13333 11.0903C4.88833 11.0786 4.69 10.9386 4.6725 10.7053C4.6725 10.678 4.67123 10.6495 4.66987 10.6191C4.66832 10.5845 4.66667 10.5473 4.66667 10.5069C4.66667 10.4311 4.66667 10.3669 4.6725 10.3086Z" fill="#B4B4B4"/>
</svg>
