<svg width="1130" height="265" viewBox="0 0 1130 265" fill="none" xmlns="http://www.w3.org/2000/svg">
<path d="M429.39 65.14C424.51 60.12 380.98 15.81 355.62 6.87C337.04 0.33 237.25 0 217.44 0C197.63 0 97.84 0.33 79.26 6.87C48.27 19.55 10.37 60.65 0 70.79C40.65 133.17 112.44 203.37 212.42 261.99L217.44 264.9L222.46 261.99C322.24 203.52 394.52 133.04 434.88 70.79L429.39 65.14ZM70.1 72.89C64.91 91.43 65.26 109.97 70.08 126.09C47.82 102.98 32.13 82.55 25.6 73.3C41.03 58.09 70.41 31.2 85.91 25.74C88.19 24.93 93.84 24.12 102.53 23.36C87.78 34.79 75.94 52.02 70.1 72.89ZM133.05 43.15C108.57 70.1 103.02 102.32 107.84 137.74C81.83 102.85 98.28 47.69 140.36 34.64C137.94 37.62 135.43 40.24 133.05 43.15ZM365.57 125.29C336.32 155.86 287.1 200.57 217.44 241.75C199.96 231.41 183.76 220.86 168.85 210.36C246.11 230.78 264.38 166.57 264.38 166.57C164.02 220.44 119.94 66.52 221.96 43.02C323.99 19.52 351.4 117.03 351.4 117.03C367.4 72.84 355.3 42.85 330.31 23.19C340.16 24 346.53 24.88 348.97 25.74C364.47 31.2 393.85 58.09 409.29 73.3C402.55 82.74 388.15 101.69 365.57 125.29Z" fill="black"/>
<path d="M496.302 184.95V97.8724H469.412V81.1534H541.861V97.8724H515.39V184.95H496.302ZM551.891 184.95V79.4815H570.143V124.065L567.635 121.418C569.4 116.867 572.279 113.43 576.273 111.108C580.36 108.693 585.097 107.486 590.484 107.486C596.057 107.486 600.98 108.693 605.253 111.108C609.618 113.523 613.008 116.913 615.423 121.279C617.838 125.552 619.046 130.521 619.046 136.187V184.95H600.794V140.506C600.794 137.162 600.144 134.283 598.844 131.868C597.543 129.453 595.732 127.595 593.41 126.295C591.181 124.901 588.534 124.205 585.469 124.205C582.496 124.205 579.849 124.901 577.527 126.295C575.205 127.595 573.394 129.453 572.094 131.868C570.793 134.283 570.143 137.162 570.143 140.506V184.95H551.891ZM670.425 186.622C662.623 186.622 655.796 184.857 649.944 181.328C644.093 177.798 639.541 173.015 636.291 166.977C633.04 160.94 631.414 154.252 631.414 146.915C631.414 139.298 633.04 132.564 636.291 126.713C639.634 120.768 644.139 116.077 649.805 112.641C655.564 109.204 661.973 107.486 669.032 107.486C674.976 107.486 680.178 108.461 684.636 110.412C689.187 112.362 693.042 115.056 696.2 118.492C699.358 121.929 701.773 125.877 703.445 130.335C705.117 134.7 705.953 139.438 705.953 144.546C705.953 145.846 705.86 147.193 705.674 148.586C705.581 149.98 705.349 151.187 704.978 152.209H646.461V138.276H694.668L686.029 144.825C686.865 140.552 686.633 136.744 685.333 133.4C684.125 130.056 682.082 127.409 679.203 125.459C676.416 123.508 673.026 122.533 669.032 122.533C665.224 122.533 661.833 123.508 658.861 125.459C655.889 127.316 653.613 130.103 652.034 133.818C650.548 137.441 649.991 141.852 650.362 147.054C649.991 151.698 650.595 155.831 652.174 159.454C653.845 162.983 656.26 165.723 659.418 167.674C662.669 169.624 666.385 170.6 670.564 170.6C674.744 170.6 678.274 169.717 681.153 167.953C684.125 166.188 686.447 163.819 688.119 160.847L702.888 168.092C701.402 171.714 699.079 174.919 695.921 177.705C692.763 180.492 689.002 182.675 684.636 184.254C680.364 185.833 675.627 186.622 670.425 186.622ZM770.085 186.622C762.654 186.622 755.781 185.275 749.465 182.582C743.241 179.888 737.761 176.126 733.024 171.296C728.38 166.466 724.758 160.801 722.157 154.299C719.556 147.797 718.256 140.691 718.256 132.982C718.256 125.273 719.51 118.167 722.018 111.666C724.618 105.071 728.241 99.4049 732.885 94.6679C737.622 89.838 743.148 86.1227 749.465 83.5219C755.781 80.8283 762.654 79.4815 770.085 79.4815C777.515 79.4815 784.156 80.7355 790.008 83.2433C795.952 85.7511 800.968 89.0949 805.055 93.2747C809.142 97.3615 812.068 101.866 813.832 106.789L796.835 114.731C794.884 109.529 791.587 105.257 786.943 101.913C782.299 98.4761 776.679 96.7578 770.085 96.7578C763.583 96.7578 757.824 98.2903 752.808 101.355C747.886 104.421 744.031 108.647 741.244 114.034C738.551 119.421 737.204 125.737 737.204 132.982C737.204 140.227 738.551 146.59 741.244 152.07C744.031 157.457 747.886 161.683 752.808 164.748C757.824 167.813 763.583 169.346 770.085 169.346C776.679 169.346 782.299 167.674 786.943 164.33C791.587 160.893 794.884 156.574 796.835 151.373L813.832 159.314C812.068 164.237 809.142 168.789 805.055 172.968C800.968 177.055 795.952 180.352 790.008 182.86C784.156 185.368 777.515 186.622 770.085 186.622ZM827.683 184.95V79.4815H845.935V184.95H827.683ZM885.775 186.622C880.481 186.622 875.883 185.74 871.982 183.975C868.081 182.21 865.062 179.702 862.926 176.451C860.789 173.108 859.721 169.253 859.721 164.887C859.721 160.708 860.65 156.992 862.508 153.742C864.365 150.398 867.245 147.611 871.146 145.382C875.047 143.153 879.97 141.574 885.914 140.645L910.714 136.605V150.537L889.397 154.159C885.775 154.81 883.081 155.971 881.317 157.643C879.552 159.314 878.669 161.497 878.669 164.191C878.669 166.792 879.645 168.881 881.595 170.46C883.639 171.947 886.147 172.69 889.119 172.69C892.927 172.69 896.271 171.9 899.15 170.321C902.122 168.649 904.398 166.374 905.977 163.494C907.649 160.615 908.485 157.457 908.485 154.02V134.515C908.485 131.264 907.185 128.57 904.584 126.434C902.076 124.205 898.732 123.09 894.552 123.09C890.651 123.09 887.168 124.158 884.103 126.295C881.131 128.338 878.948 131.078 877.555 134.515L862.647 127.27C864.133 123.276 866.455 119.839 869.613 116.96C872.864 113.988 876.672 111.665 881.038 109.994C885.403 108.322 890.141 107.486 895.249 107.486C901.472 107.486 906.952 108.647 911.689 110.969C916.426 113.198 920.095 116.356 922.696 120.443C925.39 124.437 926.736 129.128 926.736 134.515V184.95H909.46V171.993L913.361 171.714C911.411 174.965 909.089 177.705 906.395 179.935C903.701 182.071 900.636 183.743 897.2 184.95C893.763 186.065 889.955 186.622 885.775 186.622ZM962.693 184.95L936.639 109.158H955.866L974.954 166.699L968.266 166.559L988.607 109.158H1004.77L1024.97 166.559L1018.28 166.699L1037.37 109.158H1056.6L1030.54 184.95H1014.24L993.623 124.901H999.753L978.855 184.95H962.693ZM1095.44 186.622C1087.36 186.622 1080.3 184.718 1074.27 180.91C1068.32 177.009 1064.23 171.761 1062.01 165.166L1075.66 158.618C1077.61 162.89 1080.3 166.234 1083.74 168.649C1087.27 171.064 1091.17 172.272 1095.44 172.272C1098.79 172.272 1101.43 171.529 1103.38 170.042C1105.34 168.556 1106.31 166.606 1106.31 164.191C1106.31 162.705 1105.89 161.497 1105.06 160.568C1104.31 159.547 1103.25 158.711 1101.85 158.061C1100.55 157.318 1099.11 156.714 1097.53 156.249L1085.13 152.766C1078.72 150.909 1073.85 148.076 1070.5 144.267C1067.25 140.459 1065.63 135.954 1065.63 130.753C1065.63 126.109 1066.79 122.068 1069.11 118.632C1071.53 115.102 1074.82 112.362 1079 110.412C1083.28 108.461 1088.15 107.486 1093.63 107.486C1100.78 107.486 1107.1 109.204 1112.58 112.641C1118.06 116.077 1121.96 120.907 1124.28 127.131L1110.35 133.679C1109.05 130.242 1106.87 127.502 1103.8 125.459C1100.74 123.415 1097.3 122.393 1093.49 122.393C1090.43 122.393 1088.01 123.09 1086.25 124.483C1084.48 125.877 1083.6 127.688 1083.6 129.917C1083.6 131.31 1083.97 132.518 1084.72 133.539C1085.46 134.561 1086.48 135.397 1087.78 136.047C1089.17 136.697 1090.75 137.301 1092.52 137.859L1104.64 141.481C1110.86 143.339 1115.65 146.125 1118.99 149.84C1122.43 153.556 1124.14 158.107 1124.14 163.494C1124.14 168.045 1122.94 172.086 1120.52 175.615C1118.11 179.052 1114.76 181.746 1110.49 183.696C1106.22 185.647 1101.2 186.622 1095.44 186.622Z" fill="black"/>
</svg>
