<svg width="20" height="20" viewBox="0 0 20 20" fill="none" xmlns="http://www.w3.org/2000/svg">
<path fill-rule="evenodd" clip-rule="evenodd" d="M3.33268 9.99984C3.33268 6.31794 6.31745 3.33317 9.99935 3.33317C13.6812 3.33317 16.666 6.31794 16.666 9.99984V11.2498C16.666 11.9402 16.1064 12.4998 15.416 12.4998C14.7257 12.4998 14.166 11.9402 14.166 11.2498V9.99984C14.166 7.69865 12.3005 5.83317 9.99935 5.83317C7.69816 5.83317 5.83268 7.69865 5.83268 9.99984C5.83268 12.301 7.69816 14.1665 9.99935 14.1665C11.1792 14.1665 12.2445 13.6761 13.0026 12.8881C13.5273 13.6597 14.4125 14.1665 15.416 14.1665C17.0268 14.1665 18.3327 12.8607 18.3327 11.2498V9.99984C18.3327 5.39746 14.6017 1.6665 9.99935 1.6665C5.39698 1.6665 1.66602 5.39746 1.66602 9.99984C1.66602 14.6022 5.39698 18.3332 9.99935 18.3332C11.3852 18.3332 12.6944 17.9942 13.846 17.394C14.2542 17.1813 14.4126 16.678 14.1999 16.2698C13.9872 15.8617 13.4839 15.7033 13.0757 15.916C12.1562 16.3952 11.1107 16.6665 9.99935 16.6665C6.31745 16.6665 3.33268 13.6817 3.33268 9.99984ZM12.4993 9.99984C12.4993 8.61912 11.3801 7.49984 9.99935 7.49984C8.61864 7.49984 7.49935 8.61912 7.49935 9.99984C7.49935 11.3805 8.61864 12.4998 9.99935 12.4998C11.3801 12.4998 12.4993 11.3805 12.4993 9.99984Z" fill="#5E42DE"/>
</svg>
