<svg width="16" height="16" viewBox="0 0 16 16" fill="none" xmlns="http://www.w3.org/2000/svg">
<path fill-rule="evenodd" clip-rule="evenodd" d="M12.4933 6.86133C13.46 8.65466 14.16 10.188 14.5667 11.4147V11.408C14.7467 11.9547 14.6867 12.5013 14.3867 12.9547C14.0733 13.428 13.5467 13.7347 12.94 13.7947C11.9 13.8947 10.1933 14.0147 8 14.0147C5.80666 14.0147 4.10666 13.8947 3.06 13.7947C2.44666 13.7347 1.92 13.428 1.61333 12.9547C1.32 12.5013 1.25333 11.9547 1.43333 11.4147C1.84 10.188 2.53333 8.65466 3.49333 6.86133C4.77333 4.50133 5.82 2.98133 6.48 2.12799C6.86 1.64133 7.40666 1.36133 7.99333 1.36133C8.58 1.36133 9.13333 1.64133 9.50666 2.12799C10.1667 2.98133 11.22 4.49466 12.4933 6.86133ZM8 8.96134C8.36667 8.96134 8.66667 8.66134 8.66667 8.29468V5.62801C8.66667 5.26134 8.36667 4.96134 8 4.96134C7.63334 4.96134 7.33334 5.26134 7.33334 5.62801V8.29468C7.33334 8.66134 7.63334 8.96134 8 8.96134ZM8 11.7947C8.46024 11.7947 8.83334 11.4216 8.83334 10.9613C8.83334 10.5011 8.46024 10.128 8 10.128C7.53976 10.128 7.16667 10.5011 7.16667 10.9613C7.16667 11.4216 7.53976 11.7947 8 11.7947Z" fill="#FFC53D"/>
<path d="M7.993 0.0273438C9.01328 0.0273438 9.94854 0.515124 10.5614 1.31152L10.8446 1.68555C11.545 2.63235 12.5241 4.1037 13.6668 6.22754C14.6284 8.0115 15.3553 9.58985 15.7996 10.9023C15.8114 10.9311 15.823 10.9603 15.8328 10.9902C16.1284 11.8879 16.0444 12.865 15.4989 13.6895C14.9472 14.5229 14.0452 15.0238 13.0711 15.1201L13.0672 15.1211C11.9906 15.2246 10.241 15.3467 7.99984 15.3467C5.75836 15.3467 4.01575 15.2245 2.93343 15.1211H2.9305C1.95371 15.0255 1.04282 14.5258 0.493978 13.6787V13.6777C-0.0284459 12.8702 -0.133857 11.9001 0.168783 10.9922C0.608985 9.66498 1.34053 8.05779 2.3182 6.23145L2.32113 6.22461C3.63113 3.80929 4.71663 2.2282 5.42562 1.31152L5.42952 1.30664C6.04213 0.522133 6.96449 0.0274488 7.993 0.0273438ZM7.993 1.36035C7.40654 1.36046 6.86023 1.64049 6.48031 2.12695C5.82031 2.98029 4.773 4.50035 3.493 6.86035C2.53304 8.65363 1.84009 10.1874 1.43343 11.4141C1.25356 11.954 1.31984 12.5009 1.61312 12.9541C1.9198 13.4273 2.44714 13.734 3.06038 13.7939C4.10706 13.8939 5.80687 14.0137 7.99984 14.0137C10.1932 14.0137 11.9003 13.8939 12.9403 13.7939C13.5467 13.7339 14.0732 13.4272 14.3866 12.9541C14.6865 12.5008 14.7462 11.9539 14.5662 11.4072V11.4141C14.1596 10.1874 13.4597 8.65369 12.493 6.86035C11.2197 4.49376 10.1667 2.98027 9.50667 2.12695C9.13334 1.64031 8.57965 1.36035 7.993 1.36035ZM7.99984 10.127C8.45994 10.127 8.8336 10.4999 8.83382 10.96C8.83382 11.4202 8.46007 11.7939 7.99984 11.7939C7.53967 11.7939 7.16683 11.4201 7.16683 10.96C7.16705 10.5 7.53981 10.127 7.99984 10.127ZM7.99984 10.46C7.72391 10.46 7.50006 10.6841 7.49984 10.96C7.49984 11.236 7.72377 11.4599 7.99984 11.46C8.27598 11.46 8.49984 11.2361 8.49984 10.96C8.49962 10.684 8.27584 10.46 7.99984 10.46ZM7.99984 4.95996C8.36648 4.95996 8.66678 5.26032 8.66683 5.62695V8.29395C8.6667 8.6605 8.36642 8.95996 7.99984 8.95996C7.63333 8.95987 7.33395 8.66045 7.33382 8.29395V5.62695C7.33387 5.26038 7.63327 4.96005 7.99984 4.95996Z" fill="black"/>
</svg>
