<svg xmlns="http://www.w3.org/2000/svg" width="49" height="40" fill="none"><path fill="#202020" fill-rule="evenodd" d="M40.25 26.963a4.1 4.1 0 0 0 1.5-.079V36.5h3.75V38a1 1 0 0 1-1 1h-4v.25a.5.5 0 0 1-.5.5h-2a.5.5 0 0 1-.5-.5V39h-27v.25a.5.5 0 0 1-.5.5H8a.5.5 0 0 1-.5-.5V39h-4a1 1 0 0 1-1-1v-1.5h3.75v-20a2.25 2.25 0 0 1 2.25-2.25h22.124a4.15 4.15 0 0 0-1.712 1.5H8.5a.75.75 0 0 0-.75.75v20h32.5z" clip-rule="evenodd"/><path fill="#202020" fill-rule="evenodd" d="M41.75 25.313a2.643 2.643 0 0 0 1.662-2.509 2.65 2.65 0 0 0-.352-1.27l-.512-.894h1.078A2.63 2.63 0 0 0 46.25 18a2.65 2.65 0 0 0-1.157-2.19 2.6 2.6 0 0 0-1.467-.452h-1.078l.512-.894a2.64 2.64 0 0 0 .346-1.518 2.64 2.64 0 0 0-1.306-2.09 2.617 2.617 0 0 0-3.586.965l-.515.897-.513-.895a2.62 2.62 0 0 0-1.825-1.282 2.6 2.6 0 0 0-1.751.31l-.01.006-.045.027a2.65 2.65 0 0 0-.915 3.582l.512.894h-1.078q-.072 0-.143.004c-.45.024-.87.163-1.232.387A2.64 2.64 0 0 0 29.75 18c0 1.053.61 1.96 1.494 2.385.342.165.725.257 1.13.257h1.078l-.512.895a2.65 2.65 0 0 0 1.2 3.731 2.617 2.617 0 0 0 3.346-1.089l.513-.894.513.894a2.6 2.6 0 0 0 .527.652 2.62 2.62 0 0 0 1.537.658l.027.002.02.002a2.6 2.6 0 0 0 1.127-.18m-1.004-6.886-1.09.598a1.63 1.63 0 0 0-.646.646l-.599 1.09a.471.471 0 0 1-.831 0l-.599-1.09a1.63 1.63 0 0 0-.645-.646l-1.09-.598a.471.471 0 0 1 0-.832l1.09-.598c.273-.153.499-.373.645-.646l.599-1.09a.471.471 0 0 1 .831 0l.599 1.09c.153.273.373.5.645.646l1.091.598a.471.471 0 0 1 0 .832" clip-rule="evenodd"/></svg>